<svg width="626" height="545" viewBox="0 0 626 545" fill="none" xmlns="http://www.w3.org/2000/svg">
<g opacity="0.3">
<mask id="mask0_1_877" style="mask-type:alpha" maskUnits="userSpaceOnUse" x="0" y="0" width="626" height="545">
<rect x="626" width="545" height="626" transform="rotate(90 626 0)" fill="#F0F1F6"/>
</mask>
<g mask="url(#mask0_1_877)">
<rect x="-106" y="49" width="1.99996" height="838" transform="rotate(-90 -106 49)" fill="white"/>
<rect x="-106" y="124" width="1.99996" height="838" transform="rotate(-90 -106 124)" fill="white"/>
<rect x="-106" y="199" width="1.99996" height="838" transform="rotate(-90 -106 199)" fill="white"/>
<rect x="-106" y="274" width="1.99996" height="838" transform="rotate(-90 -106 274)" fill="white"/>
<rect x="-106" y="349" width="1.99996" height="838" transform="rotate(-90 -106 349)" fill="white"/>
<rect x="-106" y="424" width="1.99996" height="838" transform="rotate(-90 -106 424)" fill="white"/>
<rect x="-106" y="499" width="1.99996" height="838" transform="rotate(-90 -106 499)" fill="white"/>
<rect x="259" y="3.05176e-05" width="2" height="695" fill="white"/>
<path d="M272.501 48C263.111 46.0037 260.66 38.6635 260.001 35C258.632 44.2704 248.945 47.0976 247 48C260.617 51.5189 259.8 58.7516 260.001 59.5C262.501 51 269.501 49 272.501 48Z" fill="url(#paint0_linear_1_877)"/>
<path d="M272.501 123C263.111 121.004 260.66 113.664 260.001 110C258.632 119.27 248.945 122.098 247 123C260.617 126.519 259.8 133.752 260.001 134.5C262.501 126 269.501 124 272.501 123Z" fill="url(#paint1_linear_1_877)"/>
<path d="M272.501 198C263.111 196.004 260.66 188.664 260.001 185C258.632 194.27 248.945 197.098 247 198C260.617 201.519 259.8 208.752 260.001 209.5C262.501 201 269.501 199 272.501 198Z" fill="url(#paint2_linear_1_877)"/>
<path d="M272.501 273C263.111 271.004 260.66 263.664 260.001 260C258.632 269.27 248.945 272.098 247 273C260.617 276.519 259.8 283.752 260.001 284.5C262.501 276 269.501 274 272.501 273Z" fill="url(#paint3_linear_1_877)"/>
<path d="M272.501 348C263.111 346.004 260.66 338.664 260.001 335C258.632 344.27 248.945 347.098 247 348C260.617 351.519 259.8 358.752 260.001 359.5C262.501 351 269.501 349 272.501 348Z" fill="url(#paint4_linear_1_877)"/>
<path d="M272.501 423C263.111 421.004 260.66 413.664 260.001 410C258.632 419.27 248.945 422.098 247 423C260.617 426.519 259.8 433.752 260.001 434.5C262.501 426 269.501 424 272.501 423Z" fill="url(#paint5_linear_1_877)"/>
<path d="M272.501 498C263.111 496.004 260.66 488.664 260.001 485C258.632 494.27 248.945 497.098 247 498C260.617 501.519 259.8 508.752 260.001 509.5C262.501 501 269.501 499 272.501 498Z" fill="url(#paint6_linear_1_877)"/>
<rect x="577" y="3.05176e-05" width="2" height="695" fill="white"/>
<path d="M590.501 48C581.111 46.0037 578.66 38.6635 578.001 35C576.632 44.2704 566.945 47.0976 565 48C578.617 51.5189 577.8 58.7516 578.001 59.5C580.501 51 587.501 49 590.501 48Z" fill="url(#paint7_linear_1_877)"/>
<path d="M590.501 123C581.111 121.004 578.66 113.664 578.001 110C576.632 119.27 566.945 122.098 565 123C578.617 126.519 577.8 133.752 578.001 134.5C580.501 126 587.501 124 590.501 123Z" fill="url(#paint8_linear_1_877)"/>
<path d="M590.501 198C581.111 196.004 578.66 188.664 578.001 185C576.632 194.27 566.945 197.098 565 198C578.617 201.519 577.8 208.752 578.001 209.5C580.501 201 587.501 199 590.501 198Z" fill="url(#paint9_linear_1_877)"/>
<path d="M590.501 273C581.111 271.004 578.66 263.664 578.001 260C576.632 269.27 566.945 272.098 565 273C578.617 276.519 577.8 283.752 578.001 284.5C580.501 276 587.501 274 590.501 273Z" fill="url(#paint10_linear_1_877)"/>
<path d="M590.501 348C581.111 346.004 578.66 338.664 578.001 335C576.632 344.27 566.945 347.098 565 348C578.617 351.519 577.8 358.752 578.001 359.5C580.501 351 587.501 349 590.501 348Z" fill="url(#paint11_linear_1_877)"/>
<path d="M590.501 423C581.111 421.004 578.66 413.664 578.001 410C576.632 419.27 566.945 422.098 565 423C578.617 426.519 577.8 433.752 578.001 434.5C580.501 426 587.501 424 590.501 423Z" fill="url(#paint12_linear_1_877)"/>
<path d="M590.501 498C581.111 496.004 578.66 488.664 578.001 485C576.632 494.27 566.945 497.098 565 498C578.617 501.519 577.8 508.752 578.001 509.5C580.501 501 587.501 499 590.501 498Z" fill="url(#paint13_linear_1_877)"/>
<rect x="47" y="3.05176e-05" width="2" height="695" fill="white"/>
<path d="M60.5005 48C51.1113 46.0037 48.6597 38.6635 48.0005 35C46.6319 44.2704 36.9451 47.0976 35 48C48.6167 51.5189 47.7997 58.7516 48.0005 59.5C50.5011 51 57.5005 49 60.5005 48Z" fill="url(#paint14_linear_1_877)"/>
<path d="M60.5005 123C51.1113 121.004 48.6597 113.664 48.0005 110C46.6319 119.27 36.9451 122.098 35 123C48.6167 126.519 47.7997 133.752 48.0005 134.5C50.5011 126 57.5005 124 60.5005 123Z" fill="url(#paint15_linear_1_877)"/>
<path d="M60.5005 198C51.1113 196.004 48.6597 188.664 48.0005 185C46.6319 194.27 36.9451 197.098 35 198C48.6167 201.519 47.7997 208.752 48.0005 209.5C50.5011 201 57.5005 199 60.5005 198Z" fill="url(#paint16_linear_1_877)"/>
<path d="M60.5005 273C51.1113 271.004 48.6597 263.664 48.0005 260C46.6319 269.27 36.9451 272.098 35 273C48.6167 276.519 47.7997 283.752 48.0005 284.5C50.5011 276 57.5005 274 60.5005 273Z" fill="url(#paint17_linear_1_877)"/>
<path d="M60.5005 348C51.1113 346.004 48.6597 338.664 48.0005 335C46.6319 344.27 36.9451 347.098 35 348C48.6167 351.519 47.7997 358.752 48.0005 359.5C50.5011 351 57.5005 349 60.5005 348Z" fill="url(#paint18_linear_1_877)"/>
<path d="M60.5005 423C51.1113 421.004 48.6597 413.664 48.0005 410C46.6319 419.27 36.9451 422.098 35 423C48.6167 426.519 47.7997 433.752 48.0005 434.5C50.5011 426 57.5005 424 60.5005 423Z" fill="url(#paint19_linear_1_877)"/>
<path d="M60.5005 498C51.1113 496.004 48.6597 488.664 48.0005 485C46.6319 494.27 36.9451 497.098 35 498C48.6167 501.519 47.7997 508.752 48.0005 509.5C50.5011 501 57.5005 499 60.5005 498Z" fill="url(#paint20_linear_1_877)"/>
<rect x="365" y="3.05176e-05" width="2" height="695" fill="white"/>
<path d="M378.501 48C369.111 46.0037 366.66 38.6635 366.001 35C364.632 44.2704 354.945 47.0976 353 48C366.617 51.5189 365.8 58.7516 366.001 59.5C368.501 51 375.501 49 378.501 48Z" fill="url(#paint21_linear_1_877)"/>
<path d="M378.501 123C369.111 121.004 366.66 113.664 366.001 110C364.632 119.27 354.945 122.098 353 123C366.617 126.519 365.8 133.752 366.001 134.5C368.501 126 375.501 124 378.501 123Z" fill="url(#paint22_linear_1_877)"/>
<path d="M378.501 198C369.111 196.004 366.66 188.664 366.001 185C364.632 194.27 354.945 197.098 353 198C366.617 201.519 365.8 208.752 366.001 209.5C368.501 201 375.501 199 378.501 198Z" fill="url(#paint23_linear_1_877)"/>
<path d="M378.501 273C369.111 271.004 366.66 263.664 366.001 260C364.632 269.27 354.945 272.098 353 273C366.617 276.519 365.8 283.752 366.001 284.5C368.501 276 375.501 274 378.501 273Z" fill="url(#paint24_linear_1_877)"/>
<path d="M378.501 348C369.111 346.004 366.66 338.664 366.001 335C364.632 344.27 354.945 347.098 353 348C366.617 351.519 365.8 358.752 366.001 359.5C368.501 351 375.501 349 378.501 348Z" fill="url(#paint25_linear_1_877)"/>
<path d="M378.501 423C369.111 421.004 366.66 413.664 366.001 410C364.632 419.27 354.945 422.098 353 423C366.617 426.519 365.8 433.752 366.001 434.5C368.501 426 375.501 424 378.501 423Z" fill="url(#paint26_linear_1_877)"/>
<path d="M378.501 498C369.111 496.004 366.66 488.664 366.001 485C364.632 494.27 354.945 497.098 353 498C366.617 501.519 365.8 508.752 366.001 509.5C368.501 501 375.501 499 378.501 498Z" fill="url(#paint27_linear_1_877)"/>
<rect x="153" y="3.05176e-05" width="2" height="695" fill="white"/>
<path d="M166.501 48C157.111 46.0037 154.66 38.6635 154.001 35C152.632 44.2704 142.945 47.0976 141 48C154.617 51.5189 153.8 58.7516 154.001 59.5C156.501 51 163.501 49 166.501 48Z" fill="url(#paint28_linear_1_877)"/>
<path d="M166.501 123C157.111 121.004 154.66 113.664 154.001 110C152.632 119.27 142.945 122.098 141 123C154.617 126.519 153.8 133.752 154.001 134.5C156.501 126 163.501 124 166.501 123Z" fill="url(#paint29_linear_1_877)"/>
<path d="M166.501 198C157.111 196.004 154.66 188.664 154.001 185C152.632 194.27 142.945 197.098 141 198C154.617 201.519 153.8 208.752 154.001 209.5C156.501 201 163.501 199 166.501 198Z" fill="url(#paint30_linear_1_877)"/>
<path d="M166.501 273C157.111 271.004 154.66 263.664 154.001 260C152.632 269.27 142.945 272.098 141 273C154.617 276.519 153.8 283.752 154.001 284.5C156.501 276 163.501 274 166.501 273Z" fill="url(#paint31_linear_1_877)"/>
<path d="M166.501 348C157.111 346.004 154.66 338.664 154.001 335C152.632 344.27 142.945 347.098 141 348C154.617 351.519 153.8 358.752 154.001 359.5C156.501 351 163.501 349 166.501 348Z" fill="url(#paint32_linear_1_877)"/>
<path d="M166.501 423C157.111 421.004 154.66 413.664 154.001 410C152.632 419.27 142.945 422.098 141 423C154.617 426.519 153.8 433.752 154.001 434.5C156.501 426 163.501 424 166.501 423Z" fill="url(#paint33_linear_1_877)"/>
<path d="M166.501 498C157.111 496.004 154.66 488.664 154.001 485C152.632 494.27 142.945 497.098 141 498C154.617 501.519 153.8 508.752 154.001 509.5C156.501 501 163.501 499 166.501 498Z" fill="url(#paint34_linear_1_877)"/>
<rect x="471" y="3.05176e-05" width="2" height="695" fill="white"/>
<path d="M484.501 48C475.111 46.0037 472.66 38.6635 472.001 35C470.632 44.2704 460.945 47.0976 459 48C472.617 51.5189 471.8 58.7516 472.001 59.5C474.501 51 481.501 49 484.501 48Z" fill="url(#paint35_linear_1_877)"/>
<path d="M484.501 123C475.111 121.004 472.66 113.664 472.001 110C470.632 119.27 460.945 122.098 459 123C472.617 126.519 471.8 133.752 472.001 134.5C474.501 126 481.501 124 484.501 123Z" fill="url(#paint36_linear_1_877)"/>
<path d="M484.501 198C475.111 196.004 472.66 188.664 472.001 185C470.632 194.27 460.945 197.098 459 198C472.617 201.519 471.8 208.752 472.001 209.5C474.501 201 481.501 199 484.501 198Z" fill="url(#paint37_linear_1_877)"/>
<path d="M484.501 273C475.111 271.004 472.66 263.664 472.001 260C470.632 269.27 460.945 272.098 459 273C472.617 276.519 471.8 283.752 472.001 284.5C474.501 276 481.501 274 484.501 273Z" fill="url(#paint38_linear_1_877)"/>
<path d="M484.501 348C475.111 346.004 472.66 338.664 472.001 335C470.632 344.27 460.945 347.098 459 348C472.617 351.519 471.8 358.752 472.001 359.5C474.501 351 481.501 349 484.501 348Z" fill="url(#paint39_linear_1_877)"/>
<path d="M484.501 423C475.111 421.004 472.66 413.664 472.001 410C470.632 419.27 460.945 422.098 459 423C472.617 426.519 471.8 433.752 472.001 434.5C474.501 426 481.501 424 484.501 423Z" fill="url(#paint40_linear_1_877)"/>
<path d="M484.501 498C475.111 496.004 472.66 488.664 472.001 485C470.632 494.27 460.945 497.098 459 498C472.617 501.519 471.8 508.752 472.001 509.5C474.501 501 481.501 499 484.501 498Z" fill="url(#paint41_linear_1_877)"/>
</g>
</g>
<defs>
<linearGradient id="paint0_linear_1_877" x1="246.998" y1="47.256" x2="272.502" y2="47.256" gradientUnits="userSpaceOnUse">
<stop stop-color="#67B6F4"/>
<stop offset="0.4" stop-color="#79A9F4"/>
<stop offset="1" stop-color="#9D91F5"/>
</linearGradient>
<linearGradient id="paint1_linear_1_877" x1="246.998" y1="122.256" x2="272.502" y2="122.256" gradientUnits="userSpaceOnUse">
<stop stop-color="#67B6F4"/>
<stop offset="0.4" stop-color="#79A9F4"/>
<stop offset="1" stop-color="#9D91F5"/>
</linearGradient>
<linearGradient id="paint2_linear_1_877" x1="246.998" y1="197.256" x2="272.502" y2="197.256" gradientUnits="userSpaceOnUse">
<stop stop-color="#67B6F4"/>
<stop offset="0.4" stop-color="#79A9F4"/>
<stop offset="1" stop-color="#9D91F5"/>
</linearGradient>
<linearGradient id="paint3_linear_1_877" x1="246.998" y1="272.256" x2="272.502" y2="272.256" gradientUnits="userSpaceOnUse">
<stop stop-color="#67B6F4"/>
<stop offset="0.4" stop-color="#79A9F4"/>
<stop offset="1" stop-color="#9D91F5"/>
</linearGradient>
<linearGradient id="paint4_linear_1_877" x1="246.998" y1="347.256" x2="272.502" y2="347.256" gradientUnits="userSpaceOnUse">
<stop stop-color="#67B6F4"/>
<stop offset="0.4" stop-color="#79A9F4"/>
<stop offset="1" stop-color="#9D91F5"/>
</linearGradient>
<linearGradient id="paint5_linear_1_877" x1="246.998" y1="422.256" x2="272.502" y2="422.256" gradientUnits="userSpaceOnUse">
<stop stop-color="#67B6F4"/>
<stop offset="0.4" stop-color="#79A9F4"/>
<stop offset="1" stop-color="#9D91F5"/>
</linearGradient>
<linearGradient id="paint6_linear_1_877" x1="246.998" y1="497.256" x2="272.502" y2="497.256" gradientUnits="userSpaceOnUse">
<stop stop-color="#67B6F4"/>
<stop offset="0.4" stop-color="#79A9F4"/>
<stop offset="1" stop-color="#9D91F5"/>
</linearGradient>
<linearGradient id="paint7_linear_1_877" x1="564.998" y1="47.256" x2="590.502" y2="47.256" gradientUnits="userSpaceOnUse">
<stop stop-color="#67B6F4"/>
<stop offset="0.4" stop-color="#79A9F4"/>
<stop offset="1" stop-color="#9D91F5"/>
</linearGradient>
<linearGradient id="paint8_linear_1_877" x1="564.998" y1="122.256" x2="590.502" y2="122.256" gradientUnits="userSpaceOnUse">
<stop stop-color="#67B6F4"/>
<stop offset="0.4" stop-color="#79A9F4"/>
<stop offset="1" stop-color="#9D91F5"/>
</linearGradient>
<linearGradient id="paint9_linear_1_877" x1="564.998" y1="197.256" x2="590.502" y2="197.256" gradientUnits="userSpaceOnUse">
<stop stop-color="#67B6F4"/>
<stop offset="0.4" stop-color="#79A9F4"/>
<stop offset="1" stop-color="#9D91F5"/>
</linearGradient>
<linearGradient id="paint10_linear_1_877" x1="564.998" y1="272.256" x2="590.502" y2="272.256" gradientUnits="userSpaceOnUse">
<stop stop-color="#67B6F4"/>
<stop offset="0.4" stop-color="#79A9F4"/>
<stop offset="1" stop-color="#9D91F5"/>
</linearGradient>
<linearGradient id="paint11_linear_1_877" x1="564.998" y1="347.256" x2="590.502" y2="347.256" gradientUnits="userSpaceOnUse">
<stop stop-color="#67B6F4"/>
<stop offset="0.4" stop-color="#79A9F4"/>
<stop offset="1" stop-color="#9D91F5"/>
</linearGradient>
<linearGradient id="paint12_linear_1_877" x1="564.998" y1="422.256" x2="590.502" y2="422.256" gradientUnits="userSpaceOnUse">
<stop stop-color="#67B6F4"/>
<stop offset="0.4" stop-color="#79A9F4"/>
<stop offset="1" stop-color="#9D91F5"/>
</linearGradient>
<linearGradient id="paint13_linear_1_877" x1="564.998" y1="497.256" x2="590.502" y2="497.256" gradientUnits="userSpaceOnUse">
<stop stop-color="#67B6F4"/>
<stop offset="0.4" stop-color="#79A9F4"/>
<stop offset="1" stop-color="#9D91F5"/>
</linearGradient>
<linearGradient id="paint14_linear_1_877" x1="34.9982" y1="47.256" x2="60.5025" y2="47.256" gradientUnits="userSpaceOnUse">
<stop stop-color="#67B6F4"/>
<stop offset="0.4" stop-color="#79A9F4"/>
<stop offset="1" stop-color="#9D91F5"/>
</linearGradient>
<linearGradient id="paint15_linear_1_877" x1="34.9982" y1="122.256" x2="60.5025" y2="122.256" gradientUnits="userSpaceOnUse">
<stop stop-color="#67B6F4"/>
<stop offset="0.4" stop-color="#79A9F4"/>
<stop offset="1" stop-color="#9D91F5"/>
</linearGradient>
<linearGradient id="paint16_linear_1_877" x1="34.9982" y1="197.256" x2="60.5025" y2="197.256" gradientUnits="userSpaceOnUse">
<stop stop-color="#67B6F4"/>
<stop offset="0.4" stop-color="#79A9F4"/>
<stop offset="1" stop-color="#9D91F5"/>
</linearGradient>
<linearGradient id="paint17_linear_1_877" x1="34.9982" y1="272.256" x2="60.5025" y2="272.256" gradientUnits="userSpaceOnUse">
<stop stop-color="#67B6F4"/>
<stop offset="0.4" stop-color="#79A9F4"/>
<stop offset="1" stop-color="#9D91F5"/>
</linearGradient>
<linearGradient id="paint18_linear_1_877" x1="34.9982" y1="347.256" x2="60.5025" y2="347.256" gradientUnits="userSpaceOnUse">
<stop stop-color="#67B6F4"/>
<stop offset="0.4" stop-color="#79A9F4"/>
<stop offset="1" stop-color="#9D91F5"/>
</linearGradient>
<linearGradient id="paint19_linear_1_877" x1="34.9982" y1="422.256" x2="60.5025" y2="422.256" gradientUnits="userSpaceOnUse">
<stop stop-color="#67B6F4"/>
<stop offset="0.4" stop-color="#79A9F4"/>
<stop offset="1" stop-color="#9D91F5"/>
</linearGradient>
<linearGradient id="paint20_linear_1_877" x1="34.9982" y1="497.256" x2="60.5025" y2="497.256" gradientUnits="userSpaceOnUse">
<stop stop-color="#67B6F4"/>
<stop offset="0.4" stop-color="#79A9F4"/>
<stop offset="1" stop-color="#9D91F5"/>
</linearGradient>
<linearGradient id="paint21_linear_1_877" x1="352.998" y1="47.256" x2="378.502" y2="47.256" gradientUnits="userSpaceOnUse">
<stop stop-color="#67B6F4"/>
<stop offset="0.4" stop-color="#79A9F4"/>
<stop offset="1" stop-color="#9D91F5"/>
</linearGradient>
<linearGradient id="paint22_linear_1_877" x1="352.998" y1="122.256" x2="378.502" y2="122.256" gradientUnits="userSpaceOnUse">
<stop stop-color="#67B6F4"/>
<stop offset="0.4" stop-color="#79A9F4"/>
<stop offset="1" stop-color="#9D91F5"/>
</linearGradient>
<linearGradient id="paint23_linear_1_877" x1="352.998" y1="197.256" x2="378.502" y2="197.256" gradientUnits="userSpaceOnUse">
<stop stop-color="#67B6F4"/>
<stop offset="0.4" stop-color="#79A9F4"/>
<stop offset="1" stop-color="#9D91F5"/>
</linearGradient>
<linearGradient id="paint24_linear_1_877" x1="352.998" y1="272.256" x2="378.502" y2="272.256" gradientUnits="userSpaceOnUse">
<stop stop-color="#67B6F4"/>
<stop offset="0.4" stop-color="#79A9F4"/>
<stop offset="1" stop-color="#9D91F5"/>
</linearGradient>
<linearGradient id="paint25_linear_1_877" x1="352.998" y1="347.256" x2="378.502" y2="347.256" gradientUnits="userSpaceOnUse">
<stop stop-color="#67B6F4"/>
<stop offset="0.4" stop-color="#79A9F4"/>
<stop offset="1" stop-color="#9D91F5"/>
</linearGradient>
<linearGradient id="paint26_linear_1_877" x1="352.998" y1="422.256" x2="378.502" y2="422.256" gradientUnits="userSpaceOnUse">
<stop stop-color="#67B6F4"/>
<stop offset="0.4" stop-color="#79A9F4"/>
<stop offset="1" stop-color="#9D91F5"/>
</linearGradient>
<linearGradient id="paint27_linear_1_877" x1="352.998" y1="497.256" x2="378.502" y2="497.256" gradientUnits="userSpaceOnUse">
<stop stop-color="#67B6F4"/>
<stop offset="0.4" stop-color="#79A9F4"/>
<stop offset="1" stop-color="#9D91F5"/>
</linearGradient>
<linearGradient id="paint28_linear_1_877" x1="140.998" y1="47.256" x2="166.502" y2="47.256" gradientUnits="userSpaceOnUse">
<stop stop-color="#67B6F4"/>
<stop offset="0.4" stop-color="#79A9F4"/>
<stop offset="1" stop-color="#9D91F5"/>
</linearGradient>
<linearGradient id="paint29_linear_1_877" x1="140.998" y1="122.256" x2="166.502" y2="122.256" gradientUnits="userSpaceOnUse">
<stop stop-color="#67B6F4"/>
<stop offset="0.4" stop-color="#79A9F4"/>
<stop offset="1" stop-color="#9D91F5"/>
</linearGradient>
<linearGradient id="paint30_linear_1_877" x1="140.998" y1="197.256" x2="166.502" y2="197.256" gradientUnits="userSpaceOnUse">
<stop stop-color="#67B6F4"/>
<stop offset="0.4" stop-color="#79A9F4"/>
<stop offset="1" stop-color="#9D91F5"/>
</linearGradient>
<linearGradient id="paint31_linear_1_877" x1="140.998" y1="272.256" x2="166.502" y2="272.256" gradientUnits="userSpaceOnUse">
<stop stop-color="#67B6F4"/>
<stop offset="0.4" stop-color="#79A9F4"/>
<stop offset="1" stop-color="#9D91F5"/>
</linearGradient>
<linearGradient id="paint32_linear_1_877" x1="140.998" y1="347.256" x2="166.502" y2="347.256" gradientUnits="userSpaceOnUse">
<stop stop-color="#67B6F4"/>
<stop offset="0.4" stop-color="#79A9F4"/>
<stop offset="1" stop-color="#9D91F5"/>
</linearGradient>
<linearGradient id="paint33_linear_1_877" x1="140.998" y1="422.256" x2="166.502" y2="422.256" gradientUnits="userSpaceOnUse">
<stop stop-color="#67B6F4"/>
<stop offset="0.4" stop-color="#79A9F4"/>
<stop offset="1" stop-color="#9D91F5"/>
</linearGradient>
<linearGradient id="paint34_linear_1_877" x1="140.998" y1="497.256" x2="166.502" y2="497.256" gradientUnits="userSpaceOnUse">
<stop stop-color="#67B6F4"/>
<stop offset="0.4" stop-color="#79A9F4"/>
<stop offset="1" stop-color="#9D91F5"/>
</linearGradient>
<linearGradient id="paint35_linear_1_877" x1="458.998" y1="47.256" x2="484.502" y2="47.256" gradientUnits="userSpaceOnUse">
<stop stop-color="#67B6F4"/>
<stop offset="0.4" stop-color="#79A9F4"/>
<stop offset="1" stop-color="#9D91F5"/>
</linearGradient>
<linearGradient id="paint36_linear_1_877" x1="458.998" y1="122.256" x2="484.502" y2="122.256" gradientUnits="userSpaceOnUse">
<stop stop-color="#67B6F4"/>
<stop offset="0.4" stop-color="#79A9F4"/>
<stop offset="1" stop-color="#9D91F5"/>
</linearGradient>
<linearGradient id="paint37_linear_1_877" x1="458.998" y1="197.256" x2="484.502" y2="197.256" gradientUnits="userSpaceOnUse">
<stop stop-color="#67B6F4"/>
<stop offset="0.4" stop-color="#79A9F4"/>
<stop offset="1" stop-color="#9D91F5"/>
</linearGradient>
<linearGradient id="paint38_linear_1_877" x1="458.998" y1="272.256" x2="484.502" y2="272.256" gradientUnits="userSpaceOnUse">
<stop stop-color="#67B6F4"/>
<stop offset="0.4" stop-color="#79A9F4"/>
<stop offset="1" stop-color="#9D91F5"/>
</linearGradient>
<linearGradient id="paint39_linear_1_877" x1="458.998" y1="347.256" x2="484.502" y2="347.256" gradientUnits="userSpaceOnUse">
<stop stop-color="#67B6F4"/>
<stop offset="0.4" stop-color="#79A9F4"/>
<stop offset="1" stop-color="#9D91F5"/>
</linearGradient>
<linearGradient id="paint40_linear_1_877" x1="458.998" y1="422.256" x2="484.502" y2="422.256" gradientUnits="userSpaceOnUse">
<stop stop-color="#67B6F4"/>
<stop offset="0.4" stop-color="#79A9F4"/>
<stop offset="1" stop-color="#9D91F5"/>
</linearGradient>
<linearGradient id="paint41_linear_1_877" x1="458.998" y1="497.256" x2="484.502" y2="497.256" gradientUnits="userSpaceOnUse">
<stop stop-color="#67B6F4"/>
<stop offset="0.4" stop-color="#79A9F4"/>
<stop offset="1" stop-color="#9D91F5"/>
</linearGradient>
</defs>
</svg>
