<svg width="23" height="22" viewBox="0 0 23 22" fill="none" xmlns="http://www.w3.org/2000/svg">
<path d="M2.76208 15.8816C0.920999 14.0651 0 11.6837 0 9.30335C0 6.92283 0.920999 4.54158 2.76208 2.72513C4.60317 0.908677 7.01689 0 9.42952 0C11.8423 0 14.2559 0.908677 16.0969 2.72513C17.938 4.54158 18.859 6.92301 18.859 9.30335C18.859 11.5606 18.0309 13.8188 16.3756 15.5952L22.8728 21.3426C23.0297 21.4811 23.0434 21.7198 22.9029 21.8745C22.7626 22.0293 22.5207 22.0428 22.3639 21.9042L15.8361 16.1298C14.0312 17.7809 11.7298 18.6071 9.42925 18.6071C7.01644 18.6071 4.6029 17.6984 2.76182 15.8819L2.76208 15.8816ZM16.74 9.30335C16.74 9.51214 16.5683 9.68152 16.3567 9.68152C16.1451 9.68152 15.9734 9.51214 15.9734 9.30335C15.9734 7.5191 15.2418 5.90509 14.0587 4.73791C12.8742 3.56928 11.238 2.84725 9.42998 2.84725C9.21837 2.84725 9.04669 2.67786 9.04669 2.46908C9.04669 2.26029 9.21837 2.09091 9.42998 2.09091C11.4465 2.09091 13.2737 2.89737 14.5968 4.20216L14.5993 4.20463C15.9223 5.51028 16.74 7.31299 16.74 9.30321L16.74 9.30335ZM0.766739 9.30335C0.766739 11.4906 1.61284 13.6781 3.30419 15.3466C4.99553 17.0154 7.21277 17.8501 9.42943 17.8501C11.6463 17.8501 13.8635 17.0154 15.5547 15.3466C17.2458 13.6779 18.0921 11.4903 18.0921 9.30335C18.0921 7.11614 17.246 4.92856 15.5547 3.26007C13.8633 1.59135 11.6461 0.75657 9.42943 0.75657C7.21255 0.75657 4.9953 1.59135 3.30419 3.26007C1.61284 4.92878 0.766739 7.11636 0.766739 9.30335Z" fill="white"/>
</svg>
