<svg width="20" height="20" viewBox="0 0 20 20" fill="none" xmlns="http://www.w3.org/2000/svg">
<g clip-path="url(#clip0_655_3829)">
<path d="M19.1666 4.28349L19.1665 4.28347C19.1458 4.27946 19.1247 4.27741 19.1036 4.27737H4.94317H4.46005L4.38863 3.79955L4.16435 2.2991L4.1636 2.29408L4.16362 2.29408C4.06271 1.57447 3.44721 1.03904 2.72055 1.03873C2.7205 1.03873 2.72044 1.03873 2.72038 1.03873H0.897126C0.711316 1.03873 0.560704 1.18934 0.560704 1.37515C0.560704 1.56096 0.711316 1.71158 0.897126 1.71158H2.72137H2.72279L19.1666 4.28349ZM19.1666 4.28349C19.3486 4.31871 19.4677 4.49442 19.4332 4.67638C19.4332 4.67682 19.4331 4.67726 19.433 4.6777L17.9742 11.9495C17.9741 11.9498 17.974 11.9502 17.9739 11.9505C17.7915 12.8377 17.01 13.4741 16.1041 13.4729H16.1034M19.1666 4.28349L16.1034 13.4729M16.1034 13.4729H6.77203C5.83066 13.4695 5.03075 12.784 4.88298 11.8545M16.1034 13.4729L4.88298 11.8545M4.88298 11.8545L3.50259 2.39348C3.47769 2.20547 3.38554 2.03271 3.24301 1.90728L4.88298 11.8545ZM13.3806 17.1943C13.3816 16.2196 14.1723 15.4302 15.1469 15.4309C16.121 15.4328 16.9099 16.2224 16.9108 17.1965V17.1977C16.9099 18.1725 16.1188 18.962 15.144 18.9611C14.1692 18.9601 13.3797 18.1691 13.3806 17.1943ZM5.44897 17.2676C5.40975 16.297 6.16196 15.4778 7.131 15.4331C8.0735 15.4352 8.84889 16.1781 8.89019 17.1209C8.93268 18.091 8.18386 18.9124 7.2155 18.9611H7.17777C6.2446 18.9427 5.48668 18.2007 5.44897 17.2676Z" stroke="#0F110F" stroke-width="1.12141"/>
</g>
<defs>
<clipPath id="clip0_655_3829">
<rect width="20" height="20" fill="white"/>
</clipPath>
</defs>
</svg>
