<svg width="104" height="27" viewBox="0 0 104 27" fill="none" xmlns="http://www.w3.org/2000/svg">
<mask id="path-1-outside-1_1_21248" maskUnits="userSpaceOnUse" x="22.9219" y="0" width="81" height="27" fill="black">
<rect fill="white" x="22.9219" width="81" height="27"/>
<path d="M33.984 26C32.4145 26 31.0982 25.7637 30.0351 25.291C28.9972 24.8184 28.2252 24.0721 27.7189 23.0522C27.2126 22.0323 26.9595 20.7264 26.9595 19.1343V12.9403C26.9595 11.8209 26.7949 10.9254 26.4659 10.2537C26.1621 9.55721 25.4407 9.20895 24.3016 9.20895H23.9219V8.08955H28.4783C29.3643 8.08955 30.0477 8.2388 30.5287 8.53731C31.035 8.83582 31.3893 9.33333 31.5918 10.0299C31.7944 10.7264 31.8956 11.6965 31.8956 12.9403V19.1716C31.8956 20.4652 32.0222 21.4851 32.2753 22.2313C32.5284 22.9776 32.8955 23.5124 33.3764 23.8358C33.8574 24.1592 34.4396 24.3209 35.1231 24.3209C35.7306 24.3209 36.2622 24.1841 36.7178 23.9104C37.1735 23.6368 37.5532 23.3134 37.8569 22.9403C38.1607 22.5423 38.3885 22.194 38.5404 21.8955V8.08955H43.4765V25.6269H40.249L38.9201 23.9478H38.7302C38.2493 24.4701 37.6164 24.9428 36.8317 25.3657C36.047 25.7886 35.0978 26 33.984 26Z"/>
<path d="M49.9477 25.6269V12.9403C49.9477 11.8209 49.7959 10.9254 49.4921 10.2537C49.1883 9.55721 48.4669 9.20895 47.3278 9.20895H46.9481V8.08955H50.7071C51.5678 8.08955 52.2386 8.20149 52.7196 8.42537C53.2258 8.62438 53.6182 8.97264 53.8966 9.47015C54.3523 9.07214 54.9725 8.68657 55.7572 8.31343C56.5672 7.91542 57.5418 7.71642 58.6809 7.71642C59.2378 7.71642 59.744 7.77861 60.1997 7.90298C60.6553 8.02736 61.0477 8.21393 61.3768 8.46269C61.8071 8.76119 62.1235 9.12189 62.326 9.54478C62.5538 9.96766 62.6677 10.1667 62.6677 10.1418L60.7313 11.597C60.5034 11.2736 60.1617 10.9502 59.7061 10.6269C59.2757 10.3035 58.7442 10.1418 58.1113 10.1418C57.3013 10.1418 56.6178 10.2537 56.0609 10.4776C55.504 10.7015 55.0611 10.9751 54.732 11.2985C54.7826 11.7463 54.8206 12.107 54.8459 12.3806C54.8712 12.6542 54.8839 12.8905 54.8839 13.0896V25.6269H49.9477Z"/>
<path d="M66.9192 25.6269V12.9403C66.9192 11.8209 66.7547 10.9254 66.4256 10.2537C66.1218 9.55721 65.4004 9.20895 64.2613 9.20895H63.8816V8.08955H68.438C69.324 8.08955 70.0075 8.2388 70.4884 8.53731C70.9947 8.83582 71.3491 9.33333 71.5516 10.0299C71.7541 10.7264 71.8553 11.6965 71.8553 12.9403V25.6269H66.9192ZM69.3873 6.07463C68.4254 6.07463 67.7039 5.78856 67.223 5.21642C66.7673 4.64428 66.5395 3.98507 66.5395 3.23881C66.5395 2.59204 66.742 2.08209 67.147 1.70895C67.552 1.33582 68.0457 1.14925 68.6279 1.14925C69.5898 1.14925 70.2986 1.43532 70.7542 2.00746C71.2352 2.5796 71.4756 3.23881 71.4756 3.98507C71.4756 4.63184 71.2731 5.14179 70.8681 5.51493C70.4631 5.88806 69.9695 6.07463 69.3873 6.07463Z"/>
<path d="M85.3196 26C83.5477 26 82.0035 25.602 80.6872 24.806C79.3709 24.01 78.3584 22.9279 77.6496 21.5597C76.9409 20.1667 76.5865 18.5995 76.5865 16.8582C76.5865 14.8682 76.9535 13.2015 77.6876 11.8582C78.4217 10.49 79.4216 9.45771 80.6872 8.76119C81.9529 8.06468 83.3705 7.71642 84.9399 7.71642C86.5093 7.71642 87.9269 8.02736 89.1926 8.64925C90.4582 9.27114 91.4581 10.1418 92.1922 11.2612C92.9263 12.3806 93.2933 13.6866 93.2933 15.1791L93.1415 17.5299H81.7124C81.7124 19.9925 82.0921 21.7463 82.8516 22.791C83.6363 23.8109 84.6488 24.3209 85.8892 24.3209C87.2055 24.3209 88.2686 24.0224 89.0787 23.4254C89.914 22.8284 90.6607 22.0945 91.3189 21.2239L92.496 22.0821C92.1416 22.6294 91.6606 23.2139 91.0531 23.8358C90.4709 24.4328 89.7115 24.9428 88.7749 25.3657C87.8636 25.7886 86.7118 26 85.3196 26ZM81.7124 15.8507H88.1674C88.1674 13.3881 87.8636 11.6965 87.2561 10.7761C86.6739 9.85572 85.9018 9.39552 84.9399 9.39552C84.383 9.39552 83.8514 9.59453 83.3452 9.99254C82.8642 10.3905 82.4718 11.0622 82.1681 12.0075C81.8643 12.9279 81.7124 14.209 81.7124 15.8507Z"/>
<path d="M98.0696 25.6269V5.85075C98.0696 4.73134 97.905 3.83582 97.576 3.16418C97.2722 2.46766 96.5508 2.1194 95.4117 2.1194H95.032V1H99.5884C100.474 1 101.158 1.14925 101.639 1.44776C102.145 1.74627 102.499 2.24378 102.702 2.9403C102.904 3.63682 103.006 4.60696 103.006 5.85075V25.6269H98.0696Z"/>
</mask>
<path d="M33.984 26C32.4145 26 31.0982 25.7637 30.0351 25.291C28.9972 24.8184 28.2252 24.0721 27.7189 23.0522C27.2126 22.0323 26.9595 20.7264 26.9595 19.1343V12.9403C26.9595 11.8209 26.7949 10.9254 26.4659 10.2537C26.1621 9.55721 25.4407 9.20895 24.3016 9.20895H23.9219V8.08955H28.4783C29.3643 8.08955 30.0477 8.2388 30.5287 8.53731C31.035 8.83582 31.3893 9.33333 31.5918 10.0299C31.7944 10.7264 31.8956 11.6965 31.8956 12.9403V19.1716C31.8956 20.4652 32.0222 21.4851 32.2753 22.2313C32.5284 22.9776 32.8955 23.5124 33.3764 23.8358C33.8574 24.1592 34.4396 24.3209 35.1231 24.3209C35.7306 24.3209 36.2622 24.1841 36.7178 23.9104C37.1735 23.6368 37.5532 23.3134 37.8569 22.9403C38.1607 22.5423 38.3885 22.194 38.5404 21.8955V8.08955H43.4765V25.6269H40.249L38.9201 23.9478H38.7302C38.2493 24.4701 37.6164 24.9428 36.8317 25.3657C36.047 25.7886 35.0978 26 33.984 26Z" fill="#0E0E0F"/>
<path d="M49.9477 25.6269V12.9403C49.9477 11.8209 49.7959 10.9254 49.4921 10.2537C49.1883 9.55721 48.4669 9.20895 47.3278 9.20895H46.9481V8.08955H50.7071C51.5678 8.08955 52.2386 8.20149 52.7196 8.42537C53.2258 8.62438 53.6182 8.97264 53.8966 9.47015C54.3523 9.07214 54.9725 8.68657 55.7572 8.31343C56.5672 7.91542 57.5418 7.71642 58.6809 7.71642C59.2378 7.71642 59.744 7.77861 60.1997 7.90298C60.6553 8.02736 61.0477 8.21393 61.3768 8.46269C61.8071 8.76119 62.1235 9.12189 62.326 9.54478C62.5538 9.96766 62.6677 10.1667 62.6677 10.1418L60.7313 11.597C60.5034 11.2736 60.1617 10.9502 59.7061 10.6269C59.2757 10.3035 58.7442 10.1418 58.1113 10.1418C57.3013 10.1418 56.6178 10.2537 56.0609 10.4776C55.504 10.7015 55.0611 10.9751 54.732 11.2985C54.7826 11.7463 54.8206 12.107 54.8459 12.3806C54.8712 12.6542 54.8839 12.8905 54.8839 13.0896V25.6269H49.9477Z" fill="#0E0E0F"/>
<path d="M66.9192 25.6269V12.9403C66.9192 11.8209 66.7547 10.9254 66.4256 10.2537C66.1218 9.55721 65.4004 9.20895 64.2613 9.20895H63.8816V8.08955H68.438C69.324 8.08955 70.0075 8.2388 70.4884 8.53731C70.9947 8.83582 71.3491 9.33333 71.5516 10.0299C71.7541 10.7264 71.8553 11.6965 71.8553 12.9403V25.6269H66.9192ZM69.3873 6.07463C68.4254 6.07463 67.7039 5.78856 67.223 5.21642C66.7673 4.64428 66.5395 3.98507 66.5395 3.23881C66.5395 2.59204 66.742 2.08209 67.147 1.70895C67.552 1.33582 68.0457 1.14925 68.6279 1.14925C69.5898 1.14925 70.2986 1.43532 70.7542 2.00746C71.2352 2.5796 71.4756 3.23881 71.4756 3.98507C71.4756 4.63184 71.2731 5.14179 70.8681 5.51493C70.4631 5.88806 69.9695 6.07463 69.3873 6.07463Z" fill="#0E0E0F"/>
<path d="M85.3196 26C83.5477 26 82.0035 25.602 80.6872 24.806C79.3709 24.01 78.3584 22.9279 77.6496 21.5597C76.9409 20.1667 76.5865 18.5995 76.5865 16.8582C76.5865 14.8682 76.9535 13.2015 77.6876 11.8582C78.4217 10.49 79.4216 9.45771 80.6872 8.76119C81.9529 8.06468 83.3705 7.71642 84.9399 7.71642C86.5093 7.71642 87.9269 8.02736 89.1926 8.64925C90.4582 9.27114 91.4581 10.1418 92.1922 11.2612C92.9263 12.3806 93.2933 13.6866 93.2933 15.1791L93.1415 17.5299H81.7124C81.7124 19.9925 82.0921 21.7463 82.8516 22.791C83.6363 23.8109 84.6488 24.3209 85.8892 24.3209C87.2055 24.3209 88.2686 24.0224 89.0787 23.4254C89.914 22.8284 90.6607 22.0945 91.3189 21.2239L92.496 22.0821C92.1416 22.6294 91.6606 23.2139 91.0531 23.8358C90.4709 24.4328 89.7115 24.9428 88.7749 25.3657C87.8636 25.7886 86.7118 26 85.3196 26ZM81.7124 15.8507H88.1674C88.1674 13.3881 87.8636 11.6965 87.2561 10.7761C86.6739 9.85572 85.9018 9.39552 84.9399 9.39552C84.383 9.39552 83.8514 9.59453 83.3452 9.99254C82.8642 10.3905 82.4718 11.0622 82.1681 12.0075C81.8643 12.9279 81.7124 14.209 81.7124 15.8507Z" fill="#0E0E0F"/>
<path d="M98.0696 25.6269V5.85075C98.0696 4.73134 97.905 3.83582 97.576 3.16418C97.2722 2.46766 96.5508 2.1194 95.4117 2.1194H95.032V1H99.5884C100.474 1 101.158 1.14925 101.639 1.44776C102.145 1.74627 102.499 2.24378 102.702 2.9403C102.904 3.63682 103.006 4.60696 103.006 5.85075V25.6269H98.0696Z" fill="#0E0E0F"/>
<path d="M33.984 26C32.4145 26 31.0982 25.7637 30.0351 25.291C28.9972 24.8184 28.2252 24.0721 27.7189 23.0522C27.2126 22.0323 26.9595 20.7264 26.9595 19.1343V12.9403C26.9595 11.8209 26.7949 10.9254 26.4659 10.2537C26.1621 9.55721 25.4407 9.20895 24.3016 9.20895H23.9219V8.08955H28.4783C29.3643 8.08955 30.0477 8.2388 30.5287 8.53731C31.035 8.83582 31.3893 9.33333 31.5918 10.0299C31.7944 10.7264 31.8956 11.6965 31.8956 12.9403V19.1716C31.8956 20.4652 32.0222 21.4851 32.2753 22.2313C32.5284 22.9776 32.8955 23.5124 33.3764 23.8358C33.8574 24.1592 34.4396 24.3209 35.1231 24.3209C35.7306 24.3209 36.2622 24.1841 36.7178 23.9104C37.1735 23.6368 37.5532 23.3134 37.8569 22.9403C38.1607 22.5423 38.3885 22.194 38.5404 21.8955V8.08955H43.4765V25.6269H40.249L38.9201 23.9478H38.7302C38.2493 24.4701 37.6164 24.9428 36.8317 25.3657C36.047 25.7886 35.0978 26 33.984 26Z" stroke="#0E0E0F" stroke-width="0.6" mask="url(#path-1-outside-1_1_21248)"/>
<path d="M49.9477 25.6269V12.9403C49.9477 11.8209 49.7959 10.9254 49.4921 10.2537C49.1883 9.55721 48.4669 9.20895 47.3278 9.20895H46.9481V8.08955H50.7071C51.5678 8.08955 52.2386 8.20149 52.7196 8.42537C53.2258 8.62438 53.6182 8.97264 53.8966 9.47015C54.3523 9.07214 54.9725 8.68657 55.7572 8.31343C56.5672 7.91542 57.5418 7.71642 58.6809 7.71642C59.2378 7.71642 59.744 7.77861 60.1997 7.90298C60.6553 8.02736 61.0477 8.21393 61.3768 8.46269C61.8071 8.76119 62.1235 9.12189 62.326 9.54478C62.5538 9.96766 62.6677 10.1667 62.6677 10.1418L60.7313 11.597C60.5034 11.2736 60.1617 10.9502 59.7061 10.6269C59.2757 10.3035 58.7442 10.1418 58.1113 10.1418C57.3013 10.1418 56.6178 10.2537 56.0609 10.4776C55.504 10.7015 55.0611 10.9751 54.732 11.2985C54.7826 11.7463 54.8206 12.107 54.8459 12.3806C54.8712 12.6542 54.8839 12.8905 54.8839 13.0896V25.6269H49.9477Z" stroke="#0E0E0F" stroke-width="0.6" mask="url(#path-1-outside-1_1_21248)"/>
<path d="M66.9192 25.6269V12.9403C66.9192 11.8209 66.7547 10.9254 66.4256 10.2537C66.1218 9.55721 65.4004 9.20895 64.2613 9.20895H63.8816V8.08955H68.438C69.324 8.08955 70.0075 8.2388 70.4884 8.53731C70.9947 8.83582 71.3491 9.33333 71.5516 10.0299C71.7541 10.7264 71.8553 11.6965 71.8553 12.9403V25.6269H66.9192ZM69.3873 6.07463C68.4254 6.07463 67.7039 5.78856 67.223 5.21642C66.7673 4.64428 66.5395 3.98507 66.5395 3.23881C66.5395 2.59204 66.742 2.08209 67.147 1.70895C67.552 1.33582 68.0457 1.14925 68.6279 1.14925C69.5898 1.14925 70.2986 1.43532 70.7542 2.00746C71.2352 2.5796 71.4756 3.23881 71.4756 3.98507C71.4756 4.63184 71.2731 5.14179 70.8681 5.51493C70.4631 5.88806 69.9695 6.07463 69.3873 6.07463Z" stroke="#0E0E0F" stroke-width="0.6" mask="url(#path-1-outside-1_1_21248)"/>
<path d="M85.3196 26C83.5477 26 82.0035 25.602 80.6872 24.806C79.3709 24.01 78.3584 22.9279 77.6496 21.5597C76.9409 20.1667 76.5865 18.5995 76.5865 16.8582C76.5865 14.8682 76.9535 13.2015 77.6876 11.8582C78.4217 10.49 79.4216 9.45771 80.6872 8.76119C81.9529 8.06468 83.3705 7.71642 84.9399 7.71642C86.5093 7.71642 87.9269 8.02736 89.1926 8.64925C90.4582 9.27114 91.4581 10.1418 92.1922 11.2612C92.9263 12.3806 93.2933 13.6866 93.2933 15.1791L93.1415 17.5299H81.7124C81.7124 19.9925 82.0921 21.7463 82.8516 22.791C83.6363 23.8109 84.6488 24.3209 85.8892 24.3209C87.2055 24.3209 88.2686 24.0224 89.0787 23.4254C89.914 22.8284 90.6607 22.0945 91.3189 21.2239L92.496 22.0821C92.1416 22.6294 91.6606 23.2139 91.0531 23.8358C90.4709 24.4328 89.7115 24.9428 88.7749 25.3657C87.8636 25.7886 86.7118 26 85.3196 26ZM81.7124 15.8507H88.1674C88.1674 13.3881 87.8636 11.6965 87.2561 10.7761C86.6739 9.85572 85.9018 9.39552 84.9399 9.39552C84.383 9.39552 83.8514 9.59453 83.3452 9.99254C82.8642 10.3905 82.4718 11.0622 82.1681 12.0075C81.8643 12.9279 81.7124 14.209 81.7124 15.8507Z" stroke="#0E0E0F" stroke-width="0.6" mask="url(#path-1-outside-1_1_21248)"/>
<path d="M98.0696 25.6269V5.85075C98.0696 4.73134 97.905 3.83582 97.576 3.16418C97.2722 2.46766 96.5508 2.1194 95.4117 2.1194H95.032V1H99.5884C100.474 1 101.158 1.14925 101.639 1.44776C102.145 1.74627 102.499 2.24378 102.702 2.9403C102.904 3.63682 103.006 4.60696 103.006 5.85075V25.6269H98.0696Z" stroke="#0E0E0F" stroke-width="0.6" mask="url(#path-1-outside-1_1_21248)"/>
<path d="M0.85 25.6269V25.7769H1H21.6937H21.8437V25.6269V23.9478V23.7978H21.6937H7.27537L22.0094 1.08163L22.1597 0.85H21.8836H4.60716C3.73257 0.85 3.03051 1.0011 2.51658 1.31973C2.03445 1.60952 1.69524 2.00804 1.50552 2.51323C1.32147 2.97877 1.2297 3.46977 1.2297 3.98507V7.15672V7.30672H1.3797H2.51881H2.66881V7.15672C2.66881 5.50745 3.05787 4.39277 3.79342 3.76321C4.54369 3.12105 5.56863 2.79179 6.88537 2.79179H14.8489L0.87413 24.3512L0.85 24.3885V24.4328V25.6269Z" fill="url(#paint0_linear_1_21248)" stroke="url(#paint1_linear_1_21248)" stroke-width="0.3"/>
<defs>
<linearGradient id="paint0_linear_1_21248" x1="1" y1="13.3134" x2="21.8836" y2="13.3134" gradientUnits="userSpaceOnUse">
<stop stop-color="#56AB2F"/>
<stop offset="1" stop-color="#A8E063"/>
</linearGradient>
<linearGradient id="paint1_linear_1_21248" x1="1" y1="13.3134" x2="21.8836" y2="13.3134" gradientUnits="userSpaceOnUse">
<stop stop-color="#56AB2F"/>
<stop offset="1" stop-color="#A8E063"/>
</linearGradient>
</defs>
</svg>
