<svg width="20" height="17" viewBox="0 0 20 17" fill="none" xmlns="http://www.w3.org/2000/svg">
<g clip-path="url(#clip0_1_1555)">
<path d="M14.04 0C12.52 0 11.1 0.578638 10 1.6162C8.9 0.578638 7.48 0 5.96 0C2.67 0 0 2.73357 0 6.08568C0 8.0311 1.66 10.4554 4.94 13.2987C7.34 15.3638 9.77 16.9202 9.79 16.9401C9.85 16.98 9.93 17 10 17C10.07 17 10.15 16.98 10.21 16.9302C10.23 16.9202 12.66 15.3638 15.06 13.2987C18.34 10.4554 20 8.0311 20 6.08568C20 2.73357 17.33 0 14.04 0ZM13.7 2.9331H13.62C13.44 2.9331 13.27 2.8034 13.24 2.61385C13.2 2.40434 13.34 2.20481 13.55 2.16491L13.57 2.15493C13.78 2.125 13.98 2.26467 14.02 2.48415C14.06 2.69366 13.91 2.89319 13.7 2.9331ZM17.51 6.36502C17.3 6.36502 17.12 6.18545 17.12 5.97594C17.12 4.60915 16.25 3.39202 15 3.01291C14.8 2.94307 14.68 2.73357 14.74 2.52406C14.81 2.31455 15.03 2.20481 15.23 2.26467C15.99 2.49413 16.67 2.98298 17.15 3.64143C17.64 4.31984 17.9 5.12793 17.9 5.97594C17.9 6.18545 17.73 6.36502 17.51 6.36502Z" fill="url(#paint0_linear_1_1555)"/>
<path d="M17.9 5.97605C17.9 6.18556 17.73 6.36514 17.51 6.36514C17.3 6.36514 17.12 6.18556 17.12 5.97605C17.12 4.60927 16.25 3.39213 15 3.01303C14.8 2.94319 14.68 2.73368 14.74 2.52418C14.81 2.31467 15.03 2.20493 15.23 2.26479C15.99 2.49425 16.67 2.9831 17.15 3.64155C17.64 4.31995 17.9 5.12805 17.9 5.97605Z" fill="white"/>
<path d="M14.0192 2.48413C14.0592 2.69364 13.9092 2.89317 13.6992 2.93307H13.6192C13.4392 2.93307 13.2692 2.80338 13.2392 2.61382C13.1992 2.40432 13.3392 2.20479 13.5492 2.16488L13.5692 2.1549C13.7792 2.12497 13.9792 2.26465 14.0192 2.48413Z" fill="white"/>
</g>
<defs>
<linearGradient id="paint0_linear_1_1555" x1="0" y1="8.5" x2="20" y2="8.5" gradientUnits="userSpaceOnUse">
<stop stop-color="#56AB2F"/>
<stop offset="1" stop-color="#A8E063"/>
</linearGradient>
<clipPath id="clip0_1_1555">
<rect width="20" height="17" fill="white"/>
</clipPath>
</defs>
</svg>
