<svg width="20" height="17" viewBox="0 0 20 17" fill="none" xmlns="http://www.w3.org/2000/svg">
<path d="M14.04 0C12.52 0 11.1 0.578639 10 1.6162C8.9 0.578639 7.48 0 5.96 0C2.67 0 0 2.73357 0 6.08568C0 8.0311 1.66 10.4554 4.94 13.2987C7.34 15.3638 9.77 16.9202 9.79 16.9401C9.85 16.98 9.93 17 10 17C10.07 17 10.15 16.98 10.21 16.9302C10.23 16.9202 12.66 15.3638 15.06 13.2987C18.34 10.4554 20 8.0311 20 6.08568C20 2.73357 17.33 0 14.04 0ZM13.7 2.9331H13.62C13.44 2.9331 13.27 2.8034 13.24 2.61385C13.2 2.40434 13.34 2.20481 13.55 2.16491L13.57 2.15493C13.78 2.125 13.98 2.26467 14.02 2.48415C14.06 2.69366 13.91 2.89319 13.7 2.9331ZM17.51 6.36502C17.3 6.36502 17.12 6.18545 17.12 5.97594C17.12 4.60915 16.25 3.39202 15 3.01291C14.8 2.94307 14.68 2.73357 14.74 2.52406C14.81 2.31455 15.03 2.20481 15.23 2.26467C15.99 2.49413 16.67 2.98298 17.15 3.64143C17.64 4.31984 17.9 5.12793 17.9 5.97594C17.9 6.18545 17.73 6.36502 17.51 6.36502Z" fill="#FF3D16"/>
</svg>
