<svg width="50" height="50" viewBox="0 0 50 50" fill="none" xmlns="http://www.w3.org/2000/svg">
<g clip-path="url(#clip0_1_1010)">
<path d="M15.2331 43.5156C14.9206 43.2812 14.5299 43.0469 14.2174 42.8906C14.2956 42.2656 14.2174 41.5625 14.0612 40.8594C13.7487 39.6875 13.1237 38.5937 12.2643 37.5781C11.4831 38.2031 11.0924 39.2969 11.2487 40.4688C10.7018 39.9219 10.1549 39.375 9.68619 38.8281C9.99869 38.2812 10.1549 37.5781 10.1549 36.875C10.2331 35.7031 9.99869 34.5312 9.45181 33.3594C8.43619 33.75 7.81119 34.7656 7.65494 35.9375C7.26431 35.3125 6.95181 34.6094 6.63931 33.9844C7.10806 33.5156 7.49869 32.8906 7.73306 32.1875C8.12369 31.0938 8.20181 29.9219 7.96744 28.6719C6.87369 28.8281 5.93619 29.6094 5.46744 30.7812C5.23306 30 5.07681 29.2969 4.99869 28.5156C5.62369 28.2031 6.17056 27.6562 6.56119 27.0312C7.18619 26.0938 7.65494 24.9219 7.73306 23.6719C6.56119 23.5156 5.38931 24.1406 4.68619 25.2344C4.68619 24.4531 4.76431 23.5938 4.84244 22.8125C5.54556 22.6562 6.24869 22.2656 6.87369 21.7969C7.73306 21.0938 8.43619 20.0781 8.90494 18.9063C7.81119 18.4375 6.48306 18.75 5.46744 19.6875C5.70181 18.9063 5.93619 18.0469 6.24869 17.2656C7.02994 17.3438 7.81119 17.1094 8.51431 16.7969C9.52994 16.3281 10.4674 15.5469 11.2487 14.4531C10.3112 13.6719 8.90494 13.6719 7.65494 14.375C8.12369 13.5938 8.59244 12.8906 9.13931 12.1875C9.84244 12.5 10.7018 12.5 11.5612 12.3438C12.7331 12.1094 13.9049 11.6406 14.9987 10.7812C14.2956 9.76562 12.8893 9.375 11.4049 9.76562C12.4987 8.75 13.6706 7.8125 15.0768 7.03125C15.4674 6.79688 15.6237 6.32812 15.3893 5.9375C15.1549 5.54687 14.6081 5.39062 14.2174 5.625C12.7331 6.48437 11.4049 7.5 10.2331 8.59375C10.8581 7.03125 10.9362 5.625 10.2331 4.53125C8.82681 5.46875 7.81119 7.03125 7.57681 8.35938C7.34244 9.375 7.49869 10.2344 7.96744 10.9375C7.34244 11.7188 6.79556 12.5781 6.32681 13.3594C6.48306 11.7188 6.09244 10.3125 5.15494 9.53125C4.06119 11.0156 3.59244 12.7344 3.74869 14.0625C3.82681 15.0781 4.21744 15.8594 4.84244 16.4062C4.45181 17.3438 4.13931 18.2031 3.90494 19.1406C3.59244 17.5781 2.88931 16.3281 1.71744 15.7813C1.09244 17.5 1.09244 19.2188 1.56119 20.4688C1.95181 21.4062 2.49869 22.0312 3.27994 22.4219C3.12369 23.3594 3.12369 24.2969 3.12369 25.2344C2.42056 23.8281 1.40494 22.8906 0.154938 22.7344C-0.00131224 24.5312 0.467438 26.1719 1.24869 27.2656C1.79556 28.0469 2.57681 28.5156 3.35806 28.6719C3.43619 29.6094 3.67056 30.4687 3.82681 31.3281C2.81119 30.2344 1.63931 29.6094 0.389313 29.7656C0.701813 31.5625 1.56119 33.0469 2.65494 33.8281C3.35806 34.4531 4.21744 34.6875 4.92056 34.6094C5.23306 35.3906 5.62369 36.25 6.01431 36.9531C4.68619 36.4062 3.43619 36.0937 2.34244 36.5625C3.12369 38.2031 4.37369 39.4531 5.62369 40C6.48306 40.3906 7.26431 40.3906 7.96744 40.2344C8.51431 40.9375 9.06119 41.5625 9.68619 42.1875C8.35806 41.875 7.18619 41.9531 6.32681 42.6562C7.57681 44.0625 9.21744 44.9219 10.6237 45.1562C11.4831 45.3125 12.2643 45.1562 12.8893 44.8438C13.2018 45.0781 13.5924 45.3125 13.9049 45.5469C14.5299 45.9375 15.3112 45.7031 15.6237 45.0781C15.9362 44.5312 15.7799 43.8281 15.2331 43.5156ZM46.3268 31.3281C46.5612 30.4687 46.7174 29.5312 46.7956 28.6719C47.5768 28.5156 48.2799 28.0469 48.9049 27.2656C49.6862 26.1719 50.1549 24.5312 49.9987 22.7344C48.7487 22.8906 47.7331 23.9062 47.0299 25.2344C47.0299 24.2969 46.9518 23.3594 46.8737 22.4219C47.5768 22.1094 48.2018 21.4062 48.5924 20.4688C49.0612 19.2188 49.1393 17.5 48.4362 15.7813C47.2643 16.3281 46.5612 17.5781 46.2487 19.1406C46.0143 18.2031 45.7018 17.2656 45.3112 16.4062C45.9362 15.8594 46.3268 15.0781 46.4049 14.0625C46.5612 12.7344 46.0924 11.0156 44.9987 9.53125C43.9831 10.3125 43.6706 11.7969 43.8268 13.3594C43.2018 12.5 42.6549 11.7188 42.0299 10.9375C42.4987 10.3125 42.6549 9.375 42.4206 8.35938C42.1862 7.03125 41.1706 5.46875 39.6081 4.21875C38.9049 5.23438 38.9831 6.71875 39.6081 8.28125C38.4362 7.1875 37.1081 6.17188 35.6237 5.3125C35.2331 5.07813 34.6862 5.23437 34.4518 5.625C34.2174 6.01562 34.3737 6.48438 34.7643 6.71875C36.0924 7.5 37.3424 8.4375 38.4362 9.45312C36.9518 9.0625 35.5456 9.45312 34.8424 10.4687C35.9362 11.3281 37.1081 11.7969 38.2799 12.0312C39.1393 12.1875 39.9987 12.1875 40.7018 11.875C41.2487 12.5781 41.7956 13.3594 42.1862 14.0625C40.9362 13.3594 39.5299 13.3594 38.5924 14.1406C39.3737 15.1563 40.3112 16.0156 41.3268 16.4844C42.1081 16.875 42.8893 17.0313 43.5924 16.9531C43.9049 17.7344 44.1393 18.5156 44.3737 19.375C43.3581 18.4375 42.0299 18.125 40.9362 18.5938C41.4049 19.7656 42.1081 20.7812 42.9674 21.4844C43.5924 22.0312 44.2956 22.3438 44.9987 22.5C45.0768 23.2812 45.1549 24.1406 45.1549 24.9219C44.4518 23.8281 43.2799 23.2031 42.1081 23.3594C42.2643 24.6094 42.6549 25.7812 43.2799 26.7188C43.6706 27.3438 44.2174 27.8906 44.8424 28.2031C44.6862 28.9844 44.5299 29.6875 44.3737 30.4687C43.9049 29.2969 43.0456 28.4375 41.8737 28.3594C41.6393 29.6094 41.7956 30.8594 42.1081 31.875C42.3424 32.5781 42.6549 33.2031 43.2018 33.6719C42.8893 34.375 42.5768 35 42.1862 35.625C42.0299 34.4531 41.4049 33.4375 40.3893 33.0469C39.8424 34.2187 39.6081 35.3906 39.6862 36.5625C39.6862 37.2656 39.8424 37.9688 40.1549 38.5156C39.6862 39.0625 39.1393 39.6094 38.5924 40.1562C38.7487 38.9844 38.4362 37.8906 37.5768 37.2656C36.7174 38.2812 36.0924 39.375 35.7799 40.5469C35.6237 41.25 35.5456 41.9531 35.6237 42.5781C35.3112 42.8125 34.9987 43.0469 34.6081 43.2031C34.0612 43.5156 33.9049 44.2188 34.1393 44.7656C34.4518 45.3906 35.2331 45.625 35.8581 45.2344C36.2487 45 36.5612 44.7656 36.8737 44.5312C37.4987 44.8438 38.2799 45 39.1393 44.8438C40.5456 44.6094 42.1862 43.75 43.4362 42.3438C42.5768 41.6406 41.4049 41.5625 40.0768 41.875C40.7018 41.25 41.2487 40.625 41.7956 39.9219C42.4987 40.0781 43.2799 40 44.1393 39.6875C45.3893 39.1406 46.6393 37.9688 47.4206 36.25C46.3268 35.7812 45.0768 36.0937 43.9049 36.7969C44.2956 36.0156 44.6862 35.2344 44.9987 34.4531C45.7799 34.4531 46.5612 34.2187 47.2643 33.6719C48.2799 32.8125 49.2174 31.4062 49.5299 29.6094C48.5143 29.6094 47.3424 30.3125 46.3268 31.3281Z" fill="#C8FF62"/>
<path d="M34.6074 38.5156L32.9668 29.0625L39.8418 22.3438C40.0762 22.1094 40.1543 21.7969 40.0762 21.5625C39.998 21.25 39.7637 21.0938 39.4512 21.0156L29.9199 19.6094L25.7012 11.0156C25.5449 10.7813 25.3105 10.5469 24.998 10.5469C24.6855 10.5469 24.4512 10.7031 24.2949 11.0156L20.0762 19.6094L10.5449 21.0156C10.2324 21.0938 9.99805 21.25 9.91992 21.5625C9.8418 21.875 9.91992 22.1875 10.1543 22.3438L17.0293 29.0625L15.3887 38.5156C15.3105 38.8281 15.4668 39.1406 15.7012 39.2969C15.9355 39.4531 16.248 39.5313 16.5605 39.375L24.998 34.8437L33.5137 39.2969C33.5918 39.375 33.748 39.375 33.9043 39.375C34.0605 39.375 34.2168 39.2969 34.373 39.2188C34.5293 39.0625 34.6855 38.8281 34.6074 38.5156Z" fill="#C8FF62"/>
</g>
<defs>
<clipPath id="clip0_1_1010">
<rect width="50" height="50" fill="white"/>
</clipPath>
</defs>
</svg>
