<svg width="60" height="42" viewBox="0 0 60 42" fill="none" xmlns="http://www.w3.org/2000/svg">
<path d="M47.8109 15.0543C49.2003 12.5065 51.7266 9.76707 56.0216 7.15517C57.2217 6.45443 57.9794 5.18052 57.9794 3.84255C57.9794 1.10359 55.2003 -0.807591 52.6742 0.33882C45.3472 3.58785 33.1582 11.6778 33.1582 28.4314C33.1582 35.9485 39.1581 42 46.611 42C54.0634 42 60.0005 35.9484 60.0005 28.4952C60.0005 21.4242 54.6319 15.691 47.811 15.054L47.8109 15.0543Z" fill="black"/>
<path d="M14.5895 15.0543C15.979 12.5065 18.5052 9.76707 22.8002 7.15517C24.0003 6.45443 24.758 5.18052 24.758 3.84255C24.758 1.10359 21.9789 -0.807591 19.4528 0.33882C12.1894 3.58785 0 11.6778 0 28.4314C0 35.9485 5.99994 42 13.3896 42C20.7792 42 26.8423 35.9484 26.8423 28.4314C26.8423 21.4244 21.4736 15.691 14.5896 15.054L14.5895 15.0543Z" fill="black"/>
</svg>
