<svg width="17" height="16" viewBox="0 0 17 16" fill="none" xmlns="http://www.w3.org/2000/svg">
<path d="M16.0465 15.0223C16.1967 14.8609 16.1811 14.6111 16.0149 14.468L11.8957 10.9124C12.9308 9.77196 13.4494 8.34611 13.4494 6.92032C13.4494 5.36554 12.8327 3.81083 11.602 2.62611C10.3717 1.44167 8.75966 0.85 7.14968 0.85C5.53983 0.85 3.92766 1.44166 2.69733 2.62611C1.46671 3.81083 0.85 5.36542 0.85 6.92032C0.85 8.43487 1.43521 9.94936 2.60305 11.1218L2.60205 11.1232L2.69715 11.2148C3.92749 12.3992 5.53954 12.9909 7.14951 12.9909C8.64276 12.9909 10.1379 12.4818 11.3285 11.4631L15.4871 15.0526L15.4872 15.0527C15.6503 15.1933 15.8999 15.1801 16.0465 15.0223ZM16.0465 15.0223L15.9367 14.9201L16.0466 15.0222C16.0466 15.0223 16.0466 15.0223 16.0465 15.0223ZM10.6237 3.56604L10.6237 3.56602C9.73335 2.70933 8.50465 2.18058 7.14999 2.18058C6.93456 2.18058 6.75001 2.3502 6.75001 2.57123C6.75001 2.79226 6.93456 2.96188 7.14999 2.96188C8.28962 2.96188 9.31965 3.40584 10.0647 4.12309L10.1687 4.01503L10.0647 4.12309C10.8087 4.83931 11.2674 5.82809 11.2674 6.92032C11.2674 7.14134 11.452 7.31097 11.6674 7.31097C11.8749 7.31097 12.0538 7.15361 12.0667 6.94452L12.0674 6.94191V6.92023C12.0674 5.61043 11.5156 4.42496 10.6253 3.56762L10.6253 3.56761L10.6237 3.56604ZM3.25894 10.658L3.25893 10.658C2.1858 9.62501 1.65005 8.27217 1.65005 6.92032C1.65005 5.56861 2.1858 4.21576 3.25894 3.18265L3.25894 3.18264C4.33221 2.14927 5.74023 1.63145 7.14962 1.63145C8.55886 1.63145 9.96689 2.14926 11.0403 3.18265L11.0403 3.18266C12.1134 4.21562 12.6492 5.56846 12.6492 6.92032C12.6492 8.27202 12.1133 9.62487 11.0403 10.658C9.96704 11.6914 8.55902 12.2092 7.14962 12.2092C5.74039 12.2092 4.33236 11.6914 3.25894 10.658Z" fill="url(#paint0_linear_1_21187)" stroke="url(#paint1_linear_1_21187)" stroke-width="0.3"/>
<defs>
<linearGradient id="paint0_linear_1_21187" x1="1" y1="8" x2="16" y2="8" gradientUnits="userSpaceOnUse">
<stop stop-color="#56AB2F"/>
<stop offset="1" stop-color="#A8E063"/>
</linearGradient>
<linearGradient id="paint1_linear_1_21187" x1="1" y1="8" x2="16" y2="8" gradientUnits="userSpaceOnUse">
<stop stop-color="#56AB2F"/>
<stop offset="1" stop-color="#A8E063"/>
</linearGradient>
</defs>
</svg>
