<svg width="57" height="58" viewBox="0 0 57 58" fill="none" xmlns="http://www.w3.org/2000/svg">
<rect width="57" height="58" fill="#00B67A;"/>
<path d="M29.2125 38.2865L37.9953 36.0522L41.6648 47.4045L29.2125 38.2865ZM49.425 23.613H33.9648L29.2125 9L24.4602 23.613H9L21.5125 32.6707L16.7602 47.2837L29.2727 38.2261L36.9727 32.6707L49.425 23.613ZM91.775 38.2865L100.558 36.0522L104.227 47.4045L91.775 38.2865ZM111.988 23.613H96.5273L91.775 9L87.0227 23.613H71.5625L84.075 32.6707L79.3227 47.2837L91.8352 38.2261L99.5352 32.6707L111.988 23.613ZM154.338 38.2865L163.12 36.0522L166.79 47.4045L154.338 38.2865ZM174.55 23.613H159.09L154.338 9L149.585 23.613H134.125L146.638 32.6707L141.885 47.2837L154.398 38.2261L162.098 32.6707L174.55 23.613ZM216.9 38.2865L225.683 36.0522L229.352 47.4045L216.9 38.2865ZM237.113 23.613H221.652L216.9 9L212.148 23.613H196.688L209.2 32.6707L204.448 47.2837L216.96 38.2261L224.66 32.6707L237.113 23.613ZM279.463 38.2865L288.245 36.0522L291.915 47.4045L279.463 38.2865ZM299.675 23.613H284.215L279.463 9L274.71 23.613H259.25L271.763 32.6707L267.01 47.2837L279.523 38.2261L287.223 32.6707L299.675 23.613Z" fill="white"/>
</svg>
