<svg width="45" height="45" viewBox="0 0 45 45" fill="none" xmlns="http://www.w3.org/2000/svg">
<path d="M2.05099 16.0022C1.34803 12.0074 1.92758 9.06808 3.77531 7.2674C5.62849 5.46194 8.84599 5.05217 11.5999 6.27126C14.3687 7.49717 16.4558 10.1024 17.0483 13.0717C17.6339 16.0097 15.5162 21.0974 13.3719 23.3508C13.3411 23.3833 13.3041 23.4093 13.2632 23.4275C13.2223 23.4457 13.1782 23.4556 13.1334 23.4568C13.0887 23.4579 13.0441 23.4502 13.0023 23.4342C12.9605 23.4181 12.9223 23.3939 12.8899 23.3631C12.8574 23.3322 12.8313 23.2953 12.8131 23.2544C12.795 23.2135 12.785 23.1694 12.7839 23.1246C12.7827 23.0798 12.7904 23.0353 12.8065 22.9935C12.8226 22.9517 12.8467 22.9135 12.8776 22.881C14.8985 20.7572 16.9112 15.8747 16.3794 13.2054C15.8299 10.4508 13.8928 8.0324 11.3237 6.89513C8.81872 5.78513 5.9094 6.13967 4.25122 7.75694C2.57462 9.39126 2.06122 12.1254 2.72258 15.8849C4.1619 24.0613 8.67076 31.5667 15.418 37.0192C21.223 41.7094 27.8953 44.2001 32.8283 43.5265C36.041 43.086 38.8269 41.1592 39.9253 38.6194C40.991 36.1547 40.5887 33.3422 38.8494 31.0963C35.0094 26.1354 27.2196 26.8642 23.2583 32.5526C23.2065 32.6269 23.1275 32.6775 23.0384 32.6934C22.9493 32.7093 22.8576 32.6892 22.7834 32.6375C22.7091 32.5858 22.6585 32.5067 22.6426 32.4177C22.6267 32.3286 22.6468 32.2369 22.6985 32.1626C26.9994 25.986 35.3278 25.4344 39.388 30.679C41.2814 33.124 41.7158 36.1942 40.5505 38.8901C39.3417 41.6876 36.418 43.7229 32.9203 44.2022C22.751 45.6019 5.2869 34.3833 2.05099 16.0022Z" fill="white"/>
<path d="M12.2333 20.3033C12.2217 20.2136 12.2461 20.1229 12.3011 20.0511C12.3562 19.9793 12.4375 19.9322 12.5272 19.9202C12.5716 19.9142 12.6168 19.9171 12.6601 19.9287C12.7034 19.9403 12.744 19.9603 12.7795 19.9876C12.815 20.0149 12.8448 20.049 12.8672 20.0878C12.8895 20.1267 12.904 20.1696 12.9097 20.214C13.8676 27.5218 20.3667 33.6152 25.6392 31.9952C25.6825 31.98 25.7284 31.9736 25.7742 31.9766C25.82 31.9796 25.8648 31.9917 25.9057 32.0124C25.9467 32.0331 25.9831 32.0618 26.0127 32.0969C26.0423 32.1319 26.0645 32.1726 26.078 32.2165C26.0915 32.2604 26.0961 32.3065 26.0913 32.3521C26.0865 32.3978 26.0726 32.442 26.0504 32.4821C26.0281 32.5223 25.998 32.5575 25.9618 32.5857C25.9256 32.6139 25.884 32.6345 25.8397 32.6463C20.0449 34.4306 13.2301 27.9063 12.2333 20.3033ZM24.1903 23.0995C24.117 23.0994 24.0456 23.0757 23.9868 23.0319C23.928 22.988 23.8849 22.9264 23.8639 22.8561C23.843 22.7858 23.8452 22.7106 23.8704 22.6417C23.8955 22.5728 23.9422 22.5138 24.0035 22.4736C25.7851 21.3063 26.7042 18.174 25.9447 15.9486C24.0335 15.0888 22.6917 13.1599 22.4272 10.8765C22.0822 7.89085 23.5726 4.88403 26.4151 2.8338C29.9231 0.302212 34.944 -0.0911976 38.6285 2.17448C42.4331 4.5138 44.2194 9.48289 42.6969 13.4872C41.1942 17.4383 36.3192 19.9352 32.2576 18.4904C30.3819 21.2115 27.2483 23.0122 24.2006 23.1002L24.1903 23.0995ZM26.814 3.38608C24.1747 5.29039 22.7885 8.06062 23.1049 10.7974C23.351 12.9233 24.5626 14.6368 26.3463 15.3793C26.3891 15.3972 26.4278 15.4236 26.4601 15.4571C26.4923 15.4905 26.5174 15.5301 26.5338 15.5736C27.3553 17.7452 26.7233 20.662 25.2178 22.3181C27.7903 21.9008 30.3076 20.2406 31.8383 17.8897C31.881 17.8232 31.9457 17.7738 32.021 17.75C32.0964 17.7262 32.1777 17.7296 32.2508 17.7595C35.9688 19.2527 40.6392 16.9761 42.0581 13.2452C43.4681 9.53676 41.8044 4.92903 38.2699 2.75539C34.8574 0.654711 30.1378 0.989484 26.814 3.38608Z" fill="white"/>
<path d="M35.3281 9.74193C35.3253 9.23398 35.6649 8.3142 36.1251 8.31011C36.271 8.19489 36.4422 8.10284 36.6303 8.0408C37.1097 7.88534 37.6367 7.93716 38.0431 8.18193C38.4576 8.43148 38.7542 8.87057 38.8558 9.38534C38.9574 9.90011 38.851 10.4183 38.5626 10.8076C37.6483 12.0431 35.339 11.6367 35.3281 9.74193ZM36.0712 9.3383C36.0303 9.46307 36.0092 9.59807 36.0099 9.73784C36.0119 10.0706 36.1381 10.3747 36.3556 10.5703C37.0374 11.1867 38.4228 10.7019 38.1876 9.5183C38.1228 9.1917 37.9422 8.91761 37.6912 8.76693C37.4567 8.62443 37.1322 8.5958 36.8431 8.68989C36.5928 8.7717 36.4087 8.93057 36.3228 9.13511C36.3012 9.1873 36.2669 9.23323 36.2229 9.26873C36.179 9.30422 36.1268 9.32814 36.0712 9.3383ZM30.6024 9.74193C30.5997 9.23398 30.9392 8.3142 31.3994 8.31011C31.5453 8.19489 31.7165 8.10284 31.9047 8.0408C32.384 7.88534 32.911 7.93716 33.3174 8.18193C33.7319 8.43148 34.0285 8.87057 34.1301 9.38534C34.2317 9.90011 34.1253 10.4183 33.8369 10.8076C32.924 12.041 30.6126 11.6401 30.6024 9.74193ZM31.3449 9.3383C31.304 9.46307 31.2828 9.59807 31.2835 9.73784C31.2876 10.4237 31.7915 10.8983 32.4937 10.8253C33.7292 10.7012 33.7176 9.22034 32.9642 8.76693C32.7297 8.62443 32.4051 8.5958 32.116 8.68989C31.8658 8.7717 31.6817 8.93057 31.5958 9.13511C31.5745 9.18739 31.5403 9.23343 31.4965 9.26895C31.4526 9.30447 31.4004 9.32833 31.3449 9.3383ZM25.8828 9.74193C25.8794 9.24352 26.2244 8.3033 26.6799 8.31011C26.8258 8.19489 26.9969 8.10284 27.1851 8.0408C28.1874 7.71489 29.1951 8.29239 29.4112 9.38534C29.9151 11.9231 25.8978 12.3553 25.8828 9.74193ZM26.6253 9.3383C26.0158 11.2078 29.1085 11.3599 28.7417 9.5183C28.514 8.36466 27.1619 8.45261 26.8776 9.13443C26.8558 9.18669 26.8213 9.2327 26.7773 9.26829C26.7332 9.30388 26.681 9.32794 26.6253 9.3383ZM35.7937 18.6233C35.684 18.6233 33.7681 16.6685 33.6822 16.5833C33.6502 16.5513 33.6322 16.5079 33.6322 16.4626C33.6322 16.4173 33.6502 16.3739 33.6822 16.3419C33.7142 16.3099 33.7576 16.2919 33.8028 16.2919C33.8481 16.2919 33.8915 16.3099 33.9235 16.3419L35.9144 18.3322C35.9383 18.356 35.9546 18.3864 35.9612 18.4195C35.9678 18.4526 35.9644 18.4869 35.9515 18.5181C35.9386 18.5493 35.9167 18.5759 35.8886 18.5947C35.8605 18.6134 35.8275 18.6234 35.7937 18.6233ZM37.5378 17.6926L35.551 15.7058C35.519 15.6738 35.501 15.6304 35.501 15.5851C35.501 15.5398 35.519 15.4964 35.551 15.4644C35.583 15.4324 35.6264 15.4144 35.6717 15.4144C35.717 15.4144 35.7604 15.4324 35.7924 15.4644L37.7792 17.4512C37.8112 17.4833 37.8292 17.5267 37.8292 17.5719C37.8292 17.6172 37.8112 17.6606 37.7792 17.6926C37.7472 17.7246 37.7038 17.7426 37.6585 17.7426C37.6133 17.7426 37.5698 17.7246 37.5378 17.6926ZM39.1612 16.646L37.5351 15.0192C37.5193 15.0034 37.5067 14.9845 37.4981 14.9638C37.4895 14.9431 37.4851 14.9209 37.4851 14.8985C37.4851 14.8761 37.4895 14.8539 37.4981 14.8332C37.5067 14.8125 37.5193 14.7937 37.5351 14.7778C37.551 14.762 37.5698 14.7494 37.5905 14.7408C37.6112 14.7323 37.6334 14.7279 37.6558 14.7279C37.6782 14.7279 37.7004 14.7323 37.7211 14.7408C37.7418 14.7494 37.7606 14.762 37.7765 14.7778L39.4026 16.4047C39.4185 16.4205 39.431 16.4393 39.4396 16.46C39.4482 16.4807 39.4526 16.5029 39.4526 16.5253C39.4526 16.5478 39.4482 16.5699 39.4396 16.5907C39.431 16.6114 39.4185 16.6302 39.4026 16.646C39.3868 16.6619 39.3679 16.6744 39.3472 16.683C39.3265 16.6916 39.3043 16.696 39.2819 16.696C39.2595 16.696 39.2373 16.6916 39.2166 16.683C39.1959 16.6744 39.1771 16.6619 39.1612 16.646ZM40.7383 15.4767L39.5178 14.2563C39.4858 14.2242 39.4679 14.1808 39.4679 14.1356C39.4679 14.0903 39.4858 14.0469 39.5178 14.0149C39.5498 13.9829 39.5933 13.9649 39.6385 13.9649C39.6838 13.9649 39.7272 13.9829 39.7592 14.0149L40.9797 15.2353C40.9955 15.2512 41.0081 15.27 41.0167 15.2907C41.0252 15.3114 41.0296 15.3336 41.0296 15.356C41.0296 15.3784 41.0252 15.4006 41.0167 15.4213C41.0081 15.442 40.9955 15.4609 40.9797 15.4767C40.9638 15.4926 40.945 15.5051 40.9243 15.5137C40.9036 15.5223 40.8814 15.5267 40.859 15.5267C40.8366 15.5267 40.8144 15.5223 40.7937 15.5137C40.773 15.5051 40.7541 15.4926 40.7383 15.4767ZM41.7828 14.1567L40.5099 12.8837C40.4936 12.868 40.4807 12.8492 40.4718 12.8284C40.4629 12.8076 40.4582 12.7852 40.458 12.7626C40.4579 12.7399 40.4622 12.7175 40.4708 12.6965C40.4794 12.6756 40.4921 12.6566 40.5081 12.6406C40.5241 12.6246 40.5432 12.612 40.5642 12.6035C40.5851 12.5949 40.6076 12.5906 40.6302 12.5909C40.6528 12.5911 40.6752 12.5958 40.696 12.6048C40.7168 12.6138 40.7355 12.6268 40.7512 12.6431L42.0242 13.916C42.0405 13.9318 42.0534 13.9506 42.0623 13.9714C42.0712 13.9922 42.0759 14.0146 42.0761 14.0372C42.0762 14.0599 42.0719 14.0823 42.0633 14.1032C42.0547 14.1242 42.042 14.1432 42.026 14.1592C42.0099 14.1751 41.9909 14.1878 41.9699 14.1963C41.949 14.2048 41.9265 14.2091 41.9039 14.2089C41.8813 14.2087 41.8589 14.2039 41.8381 14.195C41.8173 14.186 41.7985 14.173 41.7828 14.1567ZM42.436 12.3308L41.4249 11.3203C41.4086 11.3046 41.3956 11.2858 41.3866 11.2651C41.3777 11.2443 41.3729 11.2219 41.3727 11.1993C41.3725 11.1767 41.3767 11.1542 41.3853 11.1332C41.3938 11.1123 41.4065 11.0932 41.4224 11.0772C41.4384 11.0612 41.4574 11.0485 41.4784 11.0399C41.4993 11.0313 41.5217 11.027 41.5444 11.0271C41.567 11.0273 41.5894 11.032 41.6102 11.0409C41.631 11.0498 41.6498 11.0627 41.6656 11.079L42.6767 12.0894C42.7078 12.1215 42.725 12.1646 42.7247 12.2093C42.7244 12.254 42.7065 12.2967 42.675 12.3284C42.6434 12.36 42.6007 12.378 42.556 12.3785C42.5113 12.3789 42.4682 12.3618 42.436 12.3308ZM42.9126 10.6337L41.9976 9.71807C41.9656 9.68606 41.9476 9.64265 41.9476 9.59739C41.9476 9.55212 41.9656 9.50871 41.9976 9.4767C42.0296 9.4447 42.073 9.42672 42.1183 9.42672C42.1636 9.42672 42.207 9.4447 42.239 9.4767L43.154 10.3924C43.186 10.4244 43.204 10.4678 43.204 10.5131C43.204 10.5583 43.186 10.6017 43.154 10.6337C43.1381 10.6496 43.1193 10.6622 43.0986 10.6707C43.0779 10.6793 43.0557 10.6837 43.0333 10.6837C42.988 10.6837 42.9446 10.6658 42.9126 10.6337ZM33.0937 18.1672L31.8542 16.9276C31.8384 16.9118 31.8258 16.893 31.8172 16.8722C31.8086 16.8515 31.8042 16.8293 31.8042 16.8069C31.8042 16.7845 31.8086 16.7623 31.8172 16.7416C31.8258 16.7209 31.8384 16.7021 31.8542 16.6862C31.8701 16.6704 31.8889 16.6578 31.9096 16.6493C31.9303 16.6407 31.9525 16.6363 31.9749 16.6363C31.9973 16.6363 32.0195 16.6407 32.0402 16.6493C32.0609 16.6578 32.0797 16.6704 32.0956 16.6862L33.3351 17.9258C33.4933 18.0847 33.254 18.3274 33.0937 18.1672ZM31.4233 18.9567L30.1469 17.6803C30.1306 17.6646 30.1176 17.6458 30.1087 17.6251C30.0997 17.6043 30.095 17.5819 30.0947 17.5593C30.0945 17.5367 30.0988 17.5142 30.1073 17.4933C30.1159 17.4723 30.1285 17.4532 30.1445 17.4372C30.1605 17.4212 30.1795 17.4085 30.2004 17.3999C30.2213 17.3913 30.2438 17.387 30.2664 17.3871C30.289 17.3873 30.3114 17.392 30.3322 17.4009C30.353 17.4098 30.3719 17.4227 30.3876 17.439L31.664 18.7153C31.6951 18.7474 31.7123 18.7905 31.712 18.8352C31.7117 18.8799 31.6938 18.9226 31.6622 18.9543C31.6307 18.9859 31.588 19.0039 31.5433 19.0044C31.4986 19.0048 31.4555 18.9877 31.4233 18.9567ZM30.1633 19.8628L28.8617 18.5612C28.8459 18.5454 28.8333 18.5266 28.8247 18.5059C28.8161 18.4852 28.8117 18.463 28.8117 18.4406C28.8117 18.4182 28.8161 18.396 28.8247 18.3753C28.8333 18.3545 28.8459 18.3357 28.8617 18.3199C28.8776 18.304 28.8964 18.2915 28.9171 18.2829C28.9378 18.2743 28.96 18.2699 28.9824 18.2699C29.0048 18.2699 29.027 18.2743 29.0477 18.2829C29.0684 18.2915 29.0872 18.304 29.1031 18.3199L30.4047 19.6215C30.4205 19.6373 30.4331 19.6561 30.4417 19.6768C30.4502 19.6976 30.4546 19.7197 30.4546 19.7422C30.4546 19.7646 30.4502 19.7868 30.4417 19.8075C30.4331 19.8282 30.4205 19.847 30.4047 19.8628C30.3888 19.8787 30.37 19.8913 30.3493 19.8998C30.3286 19.9084 30.3064 19.9128 30.284 19.9128C30.2616 19.9128 30.2394 19.9084 30.2187 19.8998C30.198 19.8913 30.1791 19.8787 30.1633 19.8628ZM28.9872 20.8897L27.8519 19.7544C27.8199 19.7224 27.8019 19.679 27.8019 19.6337C27.8019 19.5885 27.8199 19.5451 27.8519 19.5131C27.8839 19.4811 27.9273 19.4631 27.9726 19.4631C28.0179 19.4631 28.0613 19.4811 28.0933 19.5131L29.2285 20.6483C29.2444 20.6641 29.2569 20.683 29.2655 20.7037C29.2741 20.7244 29.2785 20.7466 29.2785 20.769C29.2785 20.7914 29.2741 20.8136 29.2655 20.8343C29.2569 20.855 29.2444 20.8738 29.2285 20.8897C29.2127 20.9055 29.1939 20.9181 29.1732 20.9267C29.1524 20.9352 29.1303 20.9396 29.1078 20.9396C29.0854 20.9396 29.0632 20.9352 29.0425 20.9267C29.0218 20.9181 29.003 20.9055 28.9872 20.8897ZM27.6685 21.461L26.879 20.6722C26.8631 20.6563 26.8506 20.6375 26.842 20.6168C26.8334 20.5961 26.829 20.5739 26.829 20.5515C26.829 20.5291 26.8334 20.5069 26.842 20.4862C26.8506 20.4655 26.8631 20.4466 26.879 20.4308C26.8948 20.4149 26.9136 20.4024 26.9343 20.3938C26.9551 20.3852 26.9772 20.3808 26.9997 20.3808C27.0221 20.3808 27.0443 20.3852 27.065 20.3938C27.0857 20.4024 27.1045 20.4149 27.1203 20.4308L27.9099 21.2197C27.9257 21.2355 27.9383 21.2543 27.9469 21.275C27.9555 21.2957 27.9599 21.3179 27.9599 21.3403C27.9599 21.3628 27.9555 21.3849 27.9469 21.4057C27.9383 21.4264 27.9257 21.4452 27.9099 21.461C27.894 21.4769 27.8752 21.4894 27.8545 21.498C27.8338 21.5066 27.8116 21.511 27.7892 21.511C27.7668 21.511 27.7446 21.5066 27.7239 21.498C27.7032 21.4894 27.6844 21.4769 27.6685 21.461ZM26.549 22.0494L25.9797 21.4801C25.9477 21.4481 25.9297 21.4047 25.9297 21.3594C25.9297 21.3142 25.9477 21.2708 25.9797 21.2387C26.0117 21.2067 26.0551 21.1888 26.1003 21.1888C26.1456 21.1888 26.189 21.2067 26.221 21.2387L26.7903 21.8081C26.8223 21.8401 26.8403 21.8835 26.8403 21.9287C26.8403 21.974 26.8223 22.0174 26.7903 22.0494C26.7583 22.0814 26.7149 22.0994 26.6697 22.0994C26.6244 22.0994 26.581 22.0814 26.549 22.0494Z" fill="white"/>
<path d="M25.3938 22.38C25.378 22.3641 25.3654 22.3453 25.3568 22.3246C25.3482 22.3039 25.3438 22.2817 25.3438 22.2593C25.3438 22.2369 25.3482 22.2147 25.3568 22.1939C25.3654 22.1732 25.378 22.1544 25.3938 22.1386L28.0441 19.4877C28.0599 19.4718 28.0787 19.4593 28.0994 19.4507C28.1201 19.4421 28.1423 19.4377 28.1647 19.4377C28.1871 19.4377 28.2093 19.4421 28.23 19.4507C28.2508 19.4593 28.2696 19.4718 28.2854 19.4877C28.3013 19.5035 28.3138 19.5223 28.3224 19.5431C28.331 19.5638 28.3354 19.5859 28.3354 19.6084C28.3354 19.6308 28.331 19.653 28.3224 19.6737C28.3138 19.6944 28.3013 19.7132 28.2854 19.729L25.6352 22.38C25.6194 22.3958 25.6005 22.4084 25.5798 22.417C25.5591 22.4256 25.5369 22.43 25.5145 22.43C25.4921 22.43 25.4699 22.4256 25.4492 22.417C25.4285 22.4084 25.4097 22.3958 25.3938 22.38ZM27.9084 21.242C27.8925 21.2262 27.8799 21.2074 27.8713 21.1866C27.8627 21.1659 27.8583 21.1437 27.8583 21.1213C27.8583 21.0989 27.8627 21.0767 27.8713 21.056C27.8799 21.0353 27.8925 21.0165 27.9084 21.0006L30.1577 18.7506C30.1735 18.7348 30.1924 18.7222 30.2131 18.7136C30.2338 18.7051 30.256 18.7006 30.2784 18.7006C30.3008 18.7006 30.323 18.7051 30.3437 18.7136C30.3644 18.7222 30.3832 18.7348 30.3991 18.7506C30.4149 18.7665 30.4275 18.7853 30.4361 18.806C30.4446 18.8267 30.449 18.8489 30.449 18.8713C30.449 18.8937 30.4446 18.9159 30.4361 18.9366C30.4275 18.9573 30.4149 18.9762 30.3991 18.992L28.1497 21.242C28.1339 21.2579 28.1151 21.2705 28.0944 21.2791C28.0737 21.2877 28.0515 21.2921 28.0291 21.2921C28.0066 21.2921 27.9844 21.2877 27.9637 21.2791C27.943 21.2705 27.9242 21.2579 27.9084 21.242ZM29.0838 19.0206C29.068 19.0048 29.0554 18.986 29.0468 18.9653C29.0382 18.9446 29.0338 18.9224 29.0338 18.9C29.0338 18.8775 29.0382 18.8553 29.0468 18.8346C29.0554 18.8139 29.068 18.7951 29.0838 18.7793L30.4959 17.3665C30.5117 17.3507 30.5305 17.3381 30.5512 17.3295C30.5719 17.321 30.5941 17.3166 30.6166 17.3166C30.639 17.3166 30.6612 17.321 30.6819 17.3295C30.7026 17.3381 30.7214 17.3507 30.7372 17.3665C30.7531 17.3824 30.7657 17.4012 30.7742 17.4219C30.7828 17.4426 30.7872 17.4648 30.7872 17.4872C30.7872 17.5096 30.7828 17.5318 30.7742 17.5525C30.7657 17.5732 30.7531 17.5921 30.7372 17.6079L29.3252 19.0206C29.3094 19.0365 29.2905 19.0491 29.2698 19.0577C29.2491 19.0663 29.2269 19.0707 29.2045 19.0707C29.1821 19.0707 29.1599 19.0663 29.1392 19.0577C29.1185 19.0491 29.0997 19.0365 29.0838 19.0206ZM31.1027 18.525C31.0868 18.5091 31.0742 18.4903 31.0656 18.4696C31.057 18.4489 31.0526 18.4267 31.0526 18.4043C31.0526 18.3819 31.057 18.3597 31.0656 18.3389C31.0742 18.3182 31.0868 18.2994 31.1027 18.2836L32.9225 16.4638C32.9382 16.4475 32.957 16.4345 32.9777 16.4255C32.9985 16.4166 33.0209 16.4118 33.0435 16.4116C33.0661 16.4114 33.0886 16.4157 33.1096 16.4242C33.1305 16.4328 33.1496 16.4454 33.1656 16.4614C33.1816 16.4773 33.1943 16.4964 33.2029 16.5173C33.2115 16.5382 33.2158 16.5607 33.2157 16.5833C33.2155 16.6059 33.2108 16.6283 33.2019 16.6491C33.193 16.6699 33.1801 16.6888 33.1638 16.7045L31.3441 18.5243C31.3283 18.5402 31.3095 18.5528 31.2888 18.5615C31.2681 18.5701 31.2459 18.5746 31.2235 18.5747C31.2011 18.5748 31.1789 18.5704 31.1581 18.5619C31.1374 18.5533 31.1186 18.5408 31.1027 18.525ZM32.5161 18.4704C32.5002 18.4546 32.4876 18.4358 32.479 18.4151C32.4704 18.3943 32.466 18.3721 32.466 18.3497C32.466 18.3273 32.4704 18.3051 32.479 18.2844C32.4876 18.2637 32.5002 18.2449 32.5161 18.229L34.5827 16.1625C34.5984 16.1462 34.6172 16.1331 34.638 16.1242C34.6587 16.1152 34.6811 16.1105 34.7037 16.1103C34.7264 16.11 34.7488 16.1143 34.7698 16.1229C34.7907 16.1314 34.8098 16.144 34.8258 16.16C34.8418 16.176 34.8545 16.195 34.8631 16.2159C34.8717 16.2369 34.8761 16.2593 34.8759 16.2819C34.8757 16.3046 34.8711 16.3269 34.8622 16.3478C34.8533 16.3686 34.8403 16.3874 34.8241 16.4031L32.7575 18.4697C32.7417 18.4856 32.7229 18.4983 32.7022 18.5069C32.6815 18.5156 32.6593 18.5201 32.6369 18.5201C32.6145 18.5202 32.5923 18.5158 32.5716 18.5073C32.5508 18.4988 32.532 18.4862 32.5161 18.4704ZM33.8006 18.4486L35.9088 16.3404C35.9408 16.3084 35.9842 16.2904 36.0295 16.2904C36.0748 16.2904 36.1182 16.3084 36.1502 16.3404C36.1822 16.3724 36.2002 16.4158 36.2002 16.4611C36.2002 16.5064 36.1822 16.5498 36.1502 16.5818L34.042 18.69C33.8838 18.8481 33.6411 18.6088 33.8006 18.4486ZM36.4816 17.6236L38.7452 15.36C38.761 15.3441 38.7799 15.3315 38.8006 15.323C38.8213 15.3144 38.8435 15.31 38.8659 15.31C38.8883 15.31 38.9105 15.3144 38.9312 15.323C38.9519 15.3315 38.9707 15.3441 38.9866 15.36C39.0024 15.3758 39.015 15.3946 39.0236 15.4153C39.0321 15.436 39.0365 15.4582 39.0365 15.4806C39.0365 15.503 39.0321 15.5252 39.0236 15.5459C39.015 15.5667 39.0024 15.5855 38.9866 15.6013L36.7229 17.865C36.5641 18.0225 36.3213 17.7831 36.4816 17.6236ZM37.087 16.0288C37.0711 16.013 37.0585 15.9942 37.0499 15.9735C37.0414 15.9528 37.0369 15.9306 37.0369 15.9081C37.0369 15.8857 37.0414 15.8635 37.0499 15.8428C37.0585 15.8221 37.0711 15.8033 37.087 15.7875L38.857 14.0175C38.889 13.9854 38.9324 13.9675 38.9777 13.9675C39.023 13.9675 39.0664 13.9854 39.0984 14.0175C39.1304 14.0495 39.1484 14.0929 39.1484 14.1381C39.1484 14.1834 39.1304 14.2268 39.0984 14.2588L37.3284 16.0288C37.2962 16.0605 37.2529 16.0783 37.2077 16.0783C37.1625 16.0783 37.1192 16.0605 37.087 16.0288ZM40.0059 15.6981C39.99 15.6823 39.9774 15.6635 39.9688 15.6428C39.9602 15.6221 39.9558 15.5999 39.9558 15.5775C39.9558 15.555 39.9602 15.5328 39.9688 15.5121C39.9774 15.4914 39.99 15.4726 40.0059 15.4568L41.2672 14.1947C41.2829 14.1784 41.3017 14.1654 41.3225 14.1565C41.3433 14.1475 41.3657 14.1428 41.3883 14.1425C41.4109 14.1423 41.4334 14.1466 41.4543 14.1551C41.4753 14.1637 41.4943 14.1763 41.5104 14.1923C41.5264 14.2083 41.5391 14.2273 41.5477 14.2482C41.5563 14.2691 41.5606 14.2916 41.5605 14.3142C41.5603 14.3368 41.5556 14.3592 41.5467 14.38C41.5378 14.4008 41.5249 14.4197 41.5086 14.4354L40.2472 15.6975C40.2315 15.7135 40.2127 15.7262 40.192 15.7349C40.1714 15.7436 40.1491 15.7481 40.1267 15.7482C40.1043 15.7482 40.082 15.7438 40.0613 15.7352C40.0405 15.7267 40.0217 15.714 40.0059 15.6981ZM40.2997 13.7338C40.2839 13.718 40.2713 13.6992 40.2627 13.6785C40.2541 13.6578 40.2497 13.6356 40.2497 13.6131C40.2497 13.5907 40.2541 13.5685 40.2627 13.5478C40.2713 13.5271 40.2839 13.5083 40.2997 13.4925L41.8788 11.9127C41.8947 11.8968 41.9135 11.8843 41.9342 11.8757C41.9549 11.8671 41.9771 11.8627 41.9995 11.8627C42.0219 11.8627 42.0441 11.8671 42.0648 11.8757C42.0855 11.8843 42.1043 11.8968 42.1202 11.9127C42.136 11.9285 42.1486 11.9473 42.1572 11.968C42.1658 11.9888 42.1702 12.0109 42.1702 12.0334C42.1702 12.0558 42.1658 12.078 42.1572 12.0987C42.1486 12.1194 42.136 12.1382 42.1202 12.154L40.5411 13.7338C40.5253 13.7497 40.5065 13.7623 40.4857 13.7709C40.465 13.7795 40.4428 13.7839 40.4204 13.7839C40.398 13.7839 40.3758 13.7795 40.3551 13.7709C40.3344 13.7623 40.3156 13.7497 40.2997 13.7338ZM41.1622 11.8431C41.1464 11.8273 41.1338 11.8085 41.1252 11.7878C41.1166 11.7671 41.1122 11.7449 41.1122 11.7225C41.1122 11.7 41.1166 11.6778 41.1252 11.6571C41.1338 11.6364 41.1464 11.6176 41.1622 11.6018L41.945 10.819C41.9608 10.8032 41.9796 10.7906 42.0003 10.782C42.021 10.7735 42.0432 10.7691 42.0656 10.7691C42.0881 10.7691 42.1103 10.7735 42.131 10.782C42.1517 10.7906 42.1705 10.8032 42.1863 10.819C42.2022 10.8349 42.2147 10.8537 42.2233 10.8744C42.2319 10.8951 42.2363 10.9173 42.2363 10.9397C42.2363 10.9621 42.2319 10.9843 42.2233 11.005C42.2147 11.0257 42.2022 11.0446 42.1863 11.0604L41.4036 11.8431C41.3878 11.859 41.369 11.8716 41.3482 11.8802C41.3275 11.8888 41.3053 11.8932 41.2829 11.8932C41.2605 11.8932 41.2383 11.8888 41.2176 11.8802C41.1969 11.8716 41.1781 11.859 41.1622 11.8431ZM41.9695 10.2088C41.9536 10.193 41.941 10.1742 41.9324 10.1535C41.9239 10.1328 41.9194 10.1106 41.9194 10.0881C41.9194 10.0657 41.9239 10.0435 41.9324 10.0228C41.941 10.0021 41.9536 9.98329 41.9695 9.96745L42.5047 9.43223C42.5206 9.41638 42.5394 9.40381 42.5601 9.39523C42.5808 9.38665 42.603 9.38224 42.6254 9.38224C42.6478 9.38224 42.67 9.38665 42.6907 9.39523C42.7114 9.40381 42.7303 9.41638 42.7461 9.43223C42.7619 9.44807 42.7745 9.46689 42.7831 9.48759C42.7917 9.5083 42.7961 9.53049 42.7961 9.55291C42.7961 9.57532 42.7917 9.59751 42.7831 9.61822C42.7745 9.63893 42.7619 9.65774 42.7461 9.67359L42.2109 10.2088C42.195 10.2247 42.1762 10.2373 42.1555 10.2459C42.1348 10.2545 42.1126 10.2589 42.0902 10.2589C42.0678 10.2589 42.0456 10.2545 42.0249 10.2459C42.0042 10.2373 41.9853 10.2247 41.9695 10.2088ZM27.9234 11.1675L26.9845 10.2279C26.8263 10.0697 27.0656 9.827 27.2259 9.98654L28.1647 10.9261C28.3229 11.085 28.0836 11.327 27.9234 11.1675ZM28.3502 10.4086L27.6425 9.70154C27.4843 9.54336 27.7236 9.30063 27.8838 9.46086L28.5916 10.1679C28.7497 10.3261 28.5104 10.5688 28.3502 10.4086ZM28.2616 9.63609L27.7216 9.09609C27.5634 8.93791 27.8027 8.69518 27.9629 8.85473L28.5029 9.39473C28.6611 9.55359 28.4211 9.79563 28.2616 9.63609ZM32.5781 11.1627L31.67 10.2545C31.6537 10.2388 31.6407 10.2199 31.6318 10.1991C31.6229 10.1783 31.6183 10.1559 31.6181 10.1333C31.6179 10.1107 31.6223 10.0882 31.6309 10.0673C31.6395 10.0464 31.6522 10.0273 31.6682 10.0114C31.6842 9.99539 31.7033 9.98276 31.7242 9.97422C31.7452 9.96567 31.7676 9.96139 31.7903 9.96162C31.8129 9.96185 31.8353 9.96658 31.8561 9.97554C31.8768 9.9845 31.8956 9.99752 31.9113 10.0138L32.8195 10.922C32.8358 10.9377 32.8487 10.9566 32.8576 10.9774C32.8665 10.9982 32.8712 11.0206 32.8714 11.0432C32.8715 11.0658 32.8672 11.0883 32.8586 11.1092C32.85 11.1301 32.8373 11.1491 32.8213 11.1651C32.8052 11.1811 32.7862 11.1937 32.7652 11.2023C32.7443 11.2108 32.7218 11.2151 32.6992 11.2149C32.6766 11.2146 32.6542 11.2099 32.6334 11.201C32.6126 11.192 32.5938 11.179 32.5781 11.1627ZM32.9736 10.3472L32.4602 9.83313C32.4439 9.81739 32.431 9.79856 32.4221 9.77775C32.4132 9.75694 32.4085 9.73457 32.4083 9.71194C32.4082 9.68931 32.4125 9.66687 32.4211 9.64593C32.4297 9.625 32.4424 9.60598 32.4584 9.59C32.4745 9.57402 32.4935 9.56139 32.5145 9.55285C32.5354 9.54431 32.5579 9.54003 32.5805 9.54026C32.6031 9.54049 32.6255 9.54522 32.6463 9.55418C32.6671 9.56314 32.6859 9.57615 32.7016 9.59245L33.215 10.1065C33.2312 10.1223 33.2442 10.1411 33.2531 10.1619C33.262 10.1827 33.2667 10.2051 33.2668 10.2277C33.267 10.2504 33.2626 10.2728 33.254 10.2937C33.2454 10.3147 33.2328 10.3337 33.2167 10.3497C33.2007 10.3657 33.1817 10.3783 33.1607 10.3868C33.1397 10.3954 33.1173 10.3996 33.0946 10.3994C33.072 10.3992 33.0497 10.3945 33.0289 10.3855C33.0081 10.3765 32.9893 10.3635 32.9736 10.3472ZM33.0391 9.75404L32.5127 9.22768C32.4968 9.21183 32.4843 9.19302 32.4757 9.17231C32.4671 9.1516 32.4627 9.12941 32.4627 9.107C32.4627 9.08459 32.4671 9.06239 32.4757 9.04169C32.4843 9.02098 32.4968 9.00216 32.5127 8.98632C32.5285 8.97047 32.5474 8.9579 32.5681 8.94932C32.5888 8.94074 32.611 8.93633 32.6334 8.93633C32.6558 8.93633 32.678 8.94074 32.6987 8.94932C32.7194 8.9579 32.7382 8.97047 32.7541 8.98632L33.2804 9.51268C33.4413 9.67495 33.1952 9.91086 33.0391 9.75404ZM37.4225 11.1368L36.4611 10.1754C36.4453 10.1596 36.4327 10.1407 36.4241 10.12C36.4155 10.0993 36.4111 10.0771 36.4111 10.0547C36.4111 10.0323 36.4155 10.0101 36.4241 9.98941C36.4327 9.96871 36.4453 9.94989 36.4611 9.93404C36.4769 9.9182 36.4958 9.90562 36.5165 9.89705C36.5372 9.88847 36.5594 9.88406 36.5818 9.88406C36.6042 9.88406 36.6264 9.88847 36.6471 9.89705C36.6678 9.90562 36.6866 9.9182 36.7025 9.93404L37.6638 10.8954C37.6797 10.9113 37.6922 10.9301 37.7008 10.9508C37.7094 10.9715 37.7138 10.9937 37.7138 11.0161C37.7138 11.0385 37.7094 11.0607 37.7008 11.0814C37.6922 11.1021 37.6797 11.1209 37.6638 11.1368C37.648 11.1526 37.6292 11.1652 37.6085 11.1738C37.5878 11.1823 37.5656 11.1868 37.5431 11.1868C37.5207 11.1868 37.4985 11.1823 37.4778 11.1738C37.4571 11.1652 37.4383 11.1526 37.4225 11.1368ZM37.9366 10.5722L37.1981 9.83313C37.1819 9.81739 37.1689 9.79856 37.16 9.77775C37.1511 9.75694 37.1465 9.73457 37.1463 9.71194C37.1461 9.68931 37.1505 9.66687 37.1591 9.64593C37.1677 9.625 37.1804 9.60598 37.1964 9.59C37.2124 9.57402 37.2315 9.56139 37.2524 9.55285C37.2734 9.54431 37.2958 9.54003 37.3185 9.54026C37.3411 9.54049 37.3635 9.54522 37.3842 9.55418C37.405 9.56314 37.4238 9.57615 37.4395 9.59245L38.1779 10.3315C38.1942 10.3473 38.2071 10.3661 38.216 10.3869C38.2249 10.4077 38.2296 10.4301 38.2298 10.4527C38.2299 10.4754 38.2256 10.4978 38.217 10.5187C38.2084 10.5397 38.1957 10.5587 38.1797 10.5747C38.1637 10.5907 38.1446 10.6033 38.1236 10.6118C38.1027 10.6204 38.0802 10.6246 38.0576 10.6244C38.035 10.6242 38.0126 10.6195 37.9918 10.6105C37.971 10.6015 37.9523 10.5885 37.9366 10.5722ZM38.1854 9.61018L37.5404 8.96518C37.5246 8.94933 37.512 8.93052 37.5034 8.90981C37.4948 8.8891 37.4904 8.86691 37.4904 8.8445C37.4904 8.82209 37.4948 8.79989 37.5034 8.77919C37.512 8.75848 37.5246 8.73966 37.5404 8.72382C37.5563 8.70797 37.5751 8.6954 37.5958 8.68682C37.6165 8.67824 37.6387 8.67383 37.6611 8.67383C37.6835 8.67383 37.7057 8.67824 37.7264 8.68682C37.7471 8.6954 37.7659 8.70797 37.7818 8.72382L38.4268 9.36882C38.4588 9.40082 38.4768 9.44423 38.4768 9.4895C38.4768 9.53476 38.4588 9.57817 38.4268 9.61018C38.3948 9.64219 38.3514 9.66017 38.3061 9.66017C38.2608 9.66017 38.2174 9.64219 38.1854 9.61018Z" fill="white"/>
<path d="M35.9408 10.8377C35.925 10.8218 35.9124 10.803 35.9038 10.7823C35.8952 10.7616 35.8908 10.7394 35.8908 10.717C35.8908 10.6946 35.8952 10.6724 35.9038 10.6516C35.9124 10.6309 35.925 10.6121 35.9408 10.5963L37.3018 9.23539C37.3175 9.21913 37.3363 9.20617 37.3571 9.19727C37.3779 9.18837 37.4003 9.1837 37.423 9.18353C37.4456 9.18337 37.468 9.18771 37.489 9.19631C37.5099 9.20491 37.5289 9.2176 37.5449 9.23362C37.5609 9.24965 37.5735 9.2687 37.582 9.28966C37.5906 9.31062 37.5949 9.33307 37.5946 9.3557C37.5944 9.37833 37.5897 9.40069 37.5807 9.42147C37.5718 9.44226 37.5587 9.46105 37.5424 9.47675L36.1815 10.8377C36.1658 10.8535 36.147 10.8661 36.1264 10.8747C36.1057 10.8833 36.0836 10.8877 36.0612 10.8877C36.0388 10.8877 36.0167 10.8833 35.996 10.8747C35.9754 10.8661 35.9566 10.8535 35.9408 10.8377ZM37.3549 10.5465C37.3391 10.5307 37.3265 10.5119 37.3179 10.4912C37.3093 10.4705 37.3049 10.4483 37.3049 10.4258C37.3049 10.4034 37.3093 10.3812 37.3179 10.3605C37.3265 10.3398 37.3391 10.321 37.3549 10.3052L37.8943 9.76584C37.91 9.74954 37.9287 9.73653 37.9495 9.72757C37.9703 9.71861 37.9927 9.71387 38.0153 9.71364C38.0379 9.71342 38.0604 9.7177 38.0813 9.72624C38.1023 9.73478 38.1214 9.74741 38.1374 9.76339C38.1534 9.77937 38.1661 9.79838 38.1747 9.81932C38.1833 9.84025 38.1876 9.86269 38.1875 9.88533C38.1873 9.90796 38.1826 9.93033 38.1737 9.95114C38.1648 9.97195 38.1519 9.99077 38.1356 10.0065L37.5963 10.5458C37.5805 10.5618 37.5617 10.5744 37.5411 10.5831C37.5204 10.5917 37.4982 10.5962 37.4758 10.5963C37.4533 10.5963 37.4311 10.592 37.4104 10.5834C37.3897 10.5749 37.3708 10.5624 37.3549 10.5465ZM37.8343 9.2947C37.8005 9.29496 37.7674 9.28514 37.7393 9.2665C37.7111 9.24786 37.6892 9.22126 37.6762 9.19008C37.6632 9.1589 37.6599 9.12456 37.6665 9.09146C37.6732 9.05836 37.6896 9.028 37.7136 9.00425L37.8199 8.89789C37.8358 8.88204 37.8546 8.86948 37.8753 8.86094C37.896 8.85239 37.9182 8.84804 37.9406 8.84811C38.0756 8.84811 38.272 8.73493 38.4022 8.68243C38.6108 8.59925 38.737 8.91561 38.529 8.99948C38.4868 9.01584 38.4452 9.03561 38.4029 9.05539C38.2877 9.10857 38.1588 9.16857 38.0156 9.18493L37.9549 9.24561C37.9225 9.27688 37.8793 9.29446 37.8343 9.2947ZM31.599 10.7715C31.5832 10.7557 31.5706 10.7369 31.562 10.7162C31.5534 10.6955 31.549 10.6733 31.549 10.6508C31.549 10.6284 31.5534 10.6062 31.562 10.5855C31.5706 10.5648 31.5832 10.546 31.599 10.5302L32.5672 9.56198C32.5831 9.54613 32.6019 9.53356 32.6226 9.52498C32.6433 9.5164 32.6655 9.51199 32.6879 9.51199C32.7103 9.51199 32.7325 9.5164 32.7532 9.52498C32.7739 9.53356 32.7927 9.54613 32.8086 9.56198C32.8244 9.57782 32.837 9.59664 32.8456 9.61735C32.8541 9.63805 32.8586 9.66025 32.8586 9.68266C32.8586 9.70507 32.8541 9.72726 32.8456 9.74797C32.837 9.76868 32.8244 9.78749 32.8086 9.80334L31.8404 10.7715C31.8082 10.8033 31.7649 10.821 31.7197 10.821C31.6745 10.821 31.6312 10.8033 31.599 10.7715ZM32.7752 10.6495C32.7414 10.6497 32.7083 10.6399 32.6802 10.6213C32.652 10.6026 32.6301 10.576 32.6171 10.5448C32.6042 10.5137 32.6008 10.4793 32.6074 10.4462C32.6141 10.4131 32.6305 10.3828 32.6545 10.359L33.1502 9.86266C33.3083 9.70448 33.5511 9.94379 33.3915 10.104L32.8958 10.6004C32.8636 10.632 32.8203 10.6496 32.7752 10.6495ZM32.7104 9.46516C32.6766 9.46522 32.6436 9.45525 32.6155 9.43653C32.5874 9.4178 32.5656 9.39116 32.5526 9.35998C32.5397 9.32879 32.5363 9.29447 32.5429 9.26137C32.5495 9.22826 32.5658 9.19786 32.5897 9.17402L33.0731 8.69061C33.1051 8.65861 33.1485 8.64062 33.1938 8.64062C33.2162 8.64062 33.2384 8.64504 33.2591 8.65362C33.2798 8.66219 33.2986 8.67476 33.3145 8.69061C33.3303 8.70646 33.3429 8.72528 33.3515 8.74598C33.3601 8.76669 33.3645 8.78888 33.3645 8.81129C33.3645 8.83371 33.3601 8.8559 33.3515 8.87661C33.3429 8.89731 33.3303 8.91613 33.3145 8.93198L32.8311 9.41539C32.7989 9.44714 32.7556 9.46502 32.7104 9.46516ZM26.7983 10.4879L27.6568 9.62879C27.8149 9.47061 28.0577 9.70993 27.8981 9.87016L27.0397 10.7292C26.8808 10.8874 26.6388 10.6474 26.7983 10.4879Z" fill="white"/>
<path d="M27.9721 10.5421C27.7185 10.5421 27.8017 10.0212 27.8017 9.74366C27.8017 9.51934 28.1426 9.51798 28.1426 9.74366C28.1426 10.0212 28.2257 10.5421 27.9721 10.5421ZM27.8303 9.24321C27.8144 9.22743 27.8019 9.20868 27.7933 9.18803C27.7847 9.16738 27.7803 9.14523 27.7803 9.12287C27.7803 9.1005 27.7847 9.07836 27.7933 9.05771C27.8019 9.03705 27.8144 9.0183 27.8303 9.00253L28.2871 8.54503C28.446 8.38684 28.688 8.62616 28.5285 8.78639C28.3505 8.96366 28.0001 9.41366 27.8303 9.24321ZM35.5676 42.9966L32.361 39.79C32.3451 39.7742 32.3325 39.7554 32.324 39.7347C32.3154 39.714 32.311 39.6918 32.311 39.6693C32.311 39.6469 32.3154 39.6247 32.324 39.604C32.3325 39.5833 32.3451 39.5645 32.361 39.5487C32.3768 39.5328 32.3956 39.5202 32.4163 39.5117C32.437 39.5031 32.4592 39.4987 32.4817 39.4987C32.5041 39.4987 32.5263 39.5031 32.547 39.5117C32.5677 39.5202 32.5865 39.5328 32.6023 39.5487L35.8089 42.7553C35.8248 42.7711 35.8373 42.7899 35.8459 42.8106C35.8545 42.8313 35.8589 42.8535 35.8589 42.8759C35.8589 42.8983 35.8545 42.9205 35.8459 42.9412C35.8373 42.962 35.8248 42.9808 35.8089 42.9966C35.7931 43.0125 35.7743 43.025 35.7536 43.0336C35.7328 43.0422 35.7107 43.0466 35.6882 43.0466C35.6658 43.0466 35.6436 43.0422 35.6229 43.0336C35.6022 43.025 35.5834 43.0125 35.5676 42.9966ZM37.6771 41.3568L35.2014 38.8812C35.1856 38.8653 35.173 38.8465 35.1644 38.8258C35.1558 38.8051 35.1514 38.7829 35.1514 38.7605C35.1514 38.7381 35.1558 38.7159 35.1644 38.6952C35.173 38.6745 35.1856 38.6557 35.2014 38.6398C35.2173 38.624 35.2361 38.6114 35.2568 38.6028C35.2775 38.5942 35.2997 38.5898 35.3221 38.5898C35.3445 38.5898 35.3667 38.5942 35.3874 38.6028C35.4081 38.6114 35.4269 38.624 35.4428 38.6398L37.9185 41.1155C37.9505 41.1475 37.9685 41.1909 37.9685 41.2362C37.9685 41.2814 37.9505 41.3248 37.9185 41.3568C37.8865 41.3889 37.8431 41.4068 37.7978 41.4068C37.7525 41.4068 37.7091 41.3889 37.6771 41.3568ZM38.7387 39.8043L36.906 37.9716C36.8901 37.9558 36.8775 37.937 36.869 37.9163C36.8604 37.8955 36.856 37.8734 36.856 37.8509C36.856 37.8285 36.8604 37.8063 36.869 37.7856C36.8775 37.7649 36.8901 37.7461 36.906 37.7303C36.9218 37.7144 36.9406 37.7018 36.9613 37.6933C36.982 37.6847 37.0042 37.6803 37.0267 37.6803C37.0491 37.6803 37.0713 37.6847 37.092 37.6933C37.1127 37.7018 37.1315 37.7144 37.1473 37.7303L38.9801 39.563C38.9959 39.5788 39.0085 39.5976 39.0171 39.6184C39.0256 39.6391 39.03 39.6613 39.03 39.6837C39.03 39.7061 39.0256 39.7283 39.0171 39.749C39.0085 39.7697 38.9959 39.7885 38.9801 39.8043C38.9642 39.8202 38.9454 39.8328 38.9247 39.8413C38.904 39.8499 38.8818 39.8543 38.8594 39.8543C38.837 39.8543 38.8148 39.8499 38.7941 39.8413C38.7734 39.8328 38.7545 39.8202 38.7387 39.8043ZM39.6939 37.9757L38.0992 36.3809C38.0671 36.3489 38.0492 36.3055 38.0492 36.2603C38.0492 36.215 38.0671 36.1716 38.0992 36.1396C38.1312 36.1076 38.1746 36.0896 38.2198 36.0896C38.2651 36.0896 38.3085 36.1076 38.3405 36.1396L39.9353 37.7343C39.9673 37.7664 39.9853 37.8098 39.9853 37.855C39.9853 37.9003 39.9673 37.9437 39.9353 37.9757C39.9033 38.0077 39.8599 38.0257 39.8146 38.0257C39.7693 38.0257 39.7259 38.0077 39.6939 37.9757ZM40.373 36.4382L38.4407 34.5059C38.4249 34.4901 38.4123 34.4713 38.4037 34.4506C38.3952 34.4299 38.3908 34.4077 38.3908 34.3853C38.3908 34.3628 38.3952 34.3407 38.4037 34.3199C38.4123 34.2992 38.4249 34.2804 38.4407 34.2646C38.4566 34.2487 38.4754 34.2362 38.4961 34.2276C38.5168 34.219 38.539 34.2146 38.5614 34.2146C38.5838 34.2146 38.606 34.219 38.6267 34.2276C38.6474 34.2362 38.6663 34.2487 38.6821 34.2646L40.6144 36.1968C40.6302 36.2127 40.6428 36.2315 40.6514 36.2522C40.66 36.2729 40.6644 36.2951 40.6644 36.3175C40.6644 36.3399 40.66 36.3621 40.6514 36.3828C40.6428 36.4035 40.6302 36.4224 40.6144 36.4382C40.5985 36.4541 40.5797 36.4666 40.559 36.4752C40.5383 36.4838 40.5161 36.4882 40.4937 36.4882C40.4713 36.4882 40.4491 36.4838 40.4284 36.4752C40.4077 36.4666 40.3889 36.4541 40.373 36.4382ZM32.9044 42.8337L30.4287 40.358C30.3967 40.326 30.3787 40.2826 30.3787 40.2373C30.3787 40.192 30.3967 40.1486 30.4287 40.1166C30.4607 40.0846 30.5041 40.0666 30.5494 40.0666C30.5946 40.0666 30.6381 40.0846 30.6701 40.1166L33.1457 42.5923C33.1616 42.6082 33.1742 42.627 33.1827 42.6477C33.1913 42.6684 33.1957 42.6906 33.1957 42.713C33.1957 42.7354 33.1913 42.7576 33.1827 42.7783C33.1742 42.799 33.1616 42.8178 33.1457 42.8337C33.1299 42.8495 33.1111 42.8621 33.0904 42.8707C33.0697 42.8792 33.0475 42.8837 33.0251 42.8837C33.0026 42.8837 32.9805 42.8792 32.9597 42.8707C32.939 42.8621 32.9202 42.8495 32.9044 42.8337ZM30.9632 43.2789L28.4398 40.7555C28.4078 40.7235 28.3898 40.6801 28.3898 40.6348C28.3898 40.5895 28.4078 40.5461 28.4398 40.5141C28.4718 40.4821 28.5153 40.4641 28.5605 40.4641C28.6058 40.4641 28.6492 40.4821 28.6812 40.5141L31.2046 43.0375C31.2366 43.0695 31.2546 43.1129 31.2546 43.1582C31.2546 43.2035 31.2366 43.2469 31.2046 43.2789C31.1726 43.3109 31.1292 43.3289 31.0839 43.3289C31.0387 43.3289 30.9952 43.3109 30.9632 43.2789ZM28.2135 43.1418L26.4523 41.3807C26.4365 41.3649 26.4239 41.346 26.4153 41.3253C26.4068 41.3046 26.4023 41.2824 26.4023 41.26C26.4023 41.2376 26.4068 41.2154 26.4153 41.1947C26.4239 41.174 26.4365 41.1552 26.4523 41.1393C26.4682 41.1235 26.487 41.1109 26.5077 41.1023C26.5284 41.0938 26.5506 41.0894 26.573 41.0894C26.5954 41.0894 26.6176 41.0938 26.6383 41.1023C26.659 41.1109 26.6778 41.1235 26.6937 41.1393L28.4548 42.9005C28.613 43.0593 28.373 43.3021 28.2135 43.1418Z" fill="white"/>
<path d="M26.1115 43.0845C26.0956 43.0686 26.083 43.0498 26.0744 43.0291C26.0658 43.0084 26.0614 42.9862 26.0614 42.9638C26.0614 42.9414 26.0658 42.9192 26.0744 42.8985C26.083 42.8777 26.0956 42.8589 26.1115 42.8431L29.5213 39.4333C29.5371 39.4175 29.5559 39.4049 29.5766 39.3963C29.5974 39.3878 29.6195 39.3833 29.642 39.3833C29.6644 39.3833 29.6866 39.3878 29.7073 39.3963C29.728 39.4049 29.7468 39.4175 29.7626 39.4333C29.7785 39.4492 29.7911 39.468 29.7996 39.4887C29.8082 39.5094 29.8126 39.5316 29.8126 39.554C29.8126 39.5764 29.8082 39.5986 29.7996 39.6193C29.7911 39.64 29.7785 39.6588 29.7626 39.6747L26.3529 43.0845C26.337 43.1003 26.3182 43.1129 26.2975 43.1215C26.2768 43.1301 26.2546 43.1345 26.2322 43.1345C26.2098 43.1345 26.1876 43.1301 26.1669 43.1215C26.1461 43.1129 26.1273 43.1003 26.1115 43.0845ZM28.6683 43.0708L32.2765 39.4627C32.3085 39.4306 32.3519 39.4127 32.3972 39.4127C32.4424 39.4127 32.4859 39.4306 32.5179 39.4627C32.5499 39.4947 32.5679 39.5381 32.5679 39.5833C32.5679 39.6286 32.5499 39.672 32.5179 39.704L28.9097 43.3115C28.7508 43.4704 28.5088 43.2304 28.6683 43.0708ZM31.0547 43.2413L35.0208 39.2758C35.0367 39.26 35.0555 39.2474 35.0762 39.2388C35.0969 39.2303 35.1191 39.2258 35.1415 39.2258C35.1639 39.2258 35.1861 39.2303 35.2068 39.2388C35.2275 39.2474 35.2463 39.26 35.2622 39.2758C35.278 39.2917 35.2906 39.3105 35.2992 39.3312C35.3078 39.3519 35.3122 39.3741 35.3122 39.3965C35.3122 39.4189 35.3078 39.4411 35.2992 39.4618C35.2906 39.4825 35.278 39.5013 35.2622 39.5172L31.296 43.482C31.1372 43.6408 30.8951 43.4008 31.0547 43.2413ZM33.8958 43.0279C33.8799 43.012 33.8674 42.9932 33.8588 42.9725C33.8502 42.9518 33.8457 42.9296 33.8457 42.9072C33.8457 42.8848 33.8502 42.8626 33.8588 42.8419C33.8674 42.8212 33.8799 42.8023 33.8958 42.7865L37.9929 38.6888C38.151 38.5306 38.3938 38.7699 38.2342 38.9301L34.1372 43.0279C34.1214 43.0438 34.1025 43.0563 34.0818 43.0649C34.0611 43.0735 34.0389 43.078 34.0165 43.078C33.9941 43.078 33.9719 43.0735 33.9512 43.0649C33.9305 43.0563 33.9117 43.0438 33.8958 43.0279ZM35.9979 38.3117C35.982 38.2959 35.9694 38.2771 35.9608 38.2564C35.9522 38.2357 35.9478 38.2135 35.9478 38.1911C35.9478 38.1686 35.9522 38.1464 35.9608 38.1257C35.9694 38.105 35.982 38.0862 35.9979 38.0704L38.8029 35.2661C38.8187 35.2502 38.8375 35.2376 38.8582 35.2291C38.8789 35.2205 38.9011 35.2161 38.9235 35.2161C38.946 35.2161 38.9682 35.2205 38.9889 35.2291C39.0096 35.2376 39.0284 35.2502 39.0442 35.2661C39.0601 35.2819 39.0726 35.3007 39.0812 35.3214C39.0898 35.3421 39.0942 35.3643 39.0942 35.3867C39.0942 35.4092 39.0898 35.4313 39.0812 35.4521C39.0726 35.4728 39.0601 35.4916 39.0442 35.5074L36.2392 38.3117C36.2234 38.3276 36.2046 38.3402 36.1839 38.3488C36.1632 38.3574 36.141 38.3618 36.1185 38.3618C36.0961 38.3618 36.0739 38.3574 36.0532 38.3488C36.0325 38.3402 36.0137 38.3276 35.9979 38.3117ZM38.5547 38.6526C38.5388 38.6368 38.5262 38.618 38.5176 38.5973C38.509 38.5766 38.5046 38.5544 38.5046 38.532C38.5046 38.5095 38.509 38.4873 38.5176 38.4666C38.5262 38.4459 38.5388 38.4271 38.5547 38.4113L40.0629 36.9031C40.0949 36.8711 40.1383 36.8531 40.1835 36.8531C40.2288 36.8531 40.2722 36.8711 40.3042 36.9031C40.3362 36.9351 40.3542 36.9785 40.3542 37.0238C40.3542 37.069 40.3362 37.1125 40.3042 37.1445L38.796 38.6526C38.7802 38.6685 38.7614 38.6811 38.7407 38.6897C38.72 38.6983 38.6978 38.7027 38.6754 38.7027C38.6529 38.7027 38.6307 38.6983 38.61 38.6897C38.5893 38.6811 38.5705 38.6685 38.5547 38.6526ZM38.2138 37.062C38.1979 37.0461 38.1853 37.0273 38.1767 37.0066C38.1681 36.9859 38.1637 36.9637 38.1637 36.9413C38.1637 36.9189 38.1681 36.8967 38.1767 36.876C38.1853 36.8552 38.1979 36.8364 38.2138 36.8206L39.6442 35.3895C39.6601 35.3736 39.6789 35.361 39.6996 35.3525C39.7203 35.3439 39.7425 35.3395 39.7649 35.3395C39.7873 35.3395 39.8095 35.3439 39.8302 35.3525C39.8509 35.361 39.8697 35.3736 39.8856 35.3895C39.9014 35.4053 39.914 35.4241 39.9226 35.4448C39.9312 35.4655 39.9356 35.4877 39.9356 35.5101C39.9356 35.5326 39.9312 35.5548 39.9226 35.5755C39.914 35.5962 39.9014 35.615 39.8856 35.6308L38.4551 37.062C38.4393 37.0778 38.4205 37.0904 38.3998 37.099C38.3791 37.1076 38.3569 37.112 38.3345 37.112C38.312 37.112 38.2898 37.1076 38.2691 37.099C38.2484 37.0904 38.2296 37.0778 38.2138 37.062ZM5.90105 10.1588L3.59991 7.85764C3.58361 7.84194 3.5706 7.82315 3.56164 7.80237C3.55268 7.78159 3.54794 7.75923 3.54771 7.7366C3.54749 7.71396 3.55177 7.69151 3.56031 7.67055C3.56885 7.64959 3.58148 7.63055 3.59746 7.61452C3.61344 7.59849 3.63245 7.58581 3.65339 7.57721C3.67432 7.56861 3.69676 7.56426 3.7194 7.56443C3.74203 7.56459 3.7644 7.56926 3.78521 7.57816C3.80602 7.58707 3.82484 7.60002 3.84059 7.61628L6.14241 9.91742C6.15826 9.93327 6.17083 9.95208 6.17941 9.97279C6.18798 9.99349 6.1924 10.0157 6.1924 10.0381C6.1924 10.0605 6.18798 10.0827 6.17941 10.1034C6.17083 10.1241 6.15826 10.1429 6.14241 10.1588C6.12656 10.1746 6.10775 10.1872 6.08704 10.1958C6.06633 10.2044 6.04414 10.2088 6.02173 10.2088C5.99932 10.2088 5.97712 10.2044 5.95642 10.1958C5.93571 10.1872 5.91689 10.1746 5.90105 10.1588ZM7.78832 8.82651L5.62286 6.66174C5.59086 6.62973 5.57288 6.58632 5.57288 6.54105C5.57288 6.49579 5.59086 6.45238 5.62286 6.42037C5.65487 6.38836 5.69828 6.37038 5.74355 6.37038C5.78881 6.37038 5.83222 6.38836 5.86423 6.42037L8.029 8.58514C8.0453 8.60085 8.05831 8.61964 8.06727 8.64042C8.07624 8.6612 8.08097 8.68356 8.0812 8.70619C8.08142 8.72883 8.07714 8.75128 8.0686 8.77224C8.06006 8.7932 8.04743 8.81224 8.03145 8.82827C8.01547 8.8443 7.99646 8.85698 7.97552 8.86558C7.95459 8.87418 7.93215 8.87853 7.90951 8.87836C7.88688 8.8782 7.86451 8.87353 7.8437 8.86462C7.82289 8.85572 7.80407 8.84276 7.78832 8.82651ZM9.94832 8.13514L8.01468 6.20151C7.99883 6.18566 7.98626 6.16685 7.97769 6.14614C7.96911 6.12543 7.96469 6.10324 7.96469 6.08083C7.96469 6.05841 7.96911 6.03622 7.97769 6.01551C7.98626 5.99481 7.99883 5.97599 8.01468 5.96014C8.03053 5.9443 8.04935 5.93172 8.07005 5.92315C8.09076 5.91457 8.11295 5.91016 8.13536 5.91016C8.15778 5.91016 8.17997 5.91457 8.20068 5.92315C8.22138 5.93172 8.2402 5.9443 8.25605 5.96014L10.1897 7.89378C10.2217 7.92579 10.2397 7.9692 10.2397 8.01446C10.2397 8.05973 10.2217 8.10314 10.1897 8.13514C10.1577 8.16715 10.1143 8.18513 10.069 8.18513C10.0237 8.18513 9.98033 8.16715 9.94832 8.13514ZM4.91241 12.3249L2.53355 9.94605C2.51725 9.93035 2.50423 9.91156 2.49527 9.89078C2.48631 9.87 2.48158 9.84764 2.48135 9.825C2.48112 9.80237 2.4854 9.77992 2.49394 9.75896C2.50249 9.738 2.51512 9.71895 2.5311 9.70293C2.54708 9.6869 2.56609 9.67422 2.58703 9.66562C2.60796 9.65702 2.6304 9.65267 2.65303 9.65284C2.67566 9.653 2.69804 9.65767 2.71885 9.66657C2.73965 9.67548 2.75848 9.68843 2.77423 9.70469L5.15309 12.0836C5.16939 12.0993 5.1824 12.118 5.19137 12.1388C5.20033 12.1596 5.20506 12.182 5.20529 12.2046C5.20552 12.2272 5.20123 12.2497 5.19269 12.2706C5.18415 12.2916 5.17152 12.3107 5.15554 12.3267C5.13956 12.3427 5.12055 12.3554 5.09961 12.364C5.07868 12.3726 5.05624 12.3769 5.03361 12.3768C5.01097 12.3766 4.9886 12.3719 4.96779 12.363C4.94698 12.3541 4.92816 12.3412 4.91241 12.3249ZM4.33355 13.6804L2.27241 11.6192C2.25611 11.6035 2.2431 11.5847 2.23414 11.564C2.22518 11.5432 2.22044 11.5208 2.22021 11.4982C2.21999 11.4756 2.22427 11.4531 2.23281 11.4321C2.24135 11.4112 2.25398 11.3921 2.26996 11.3761C2.28594 11.3601 2.30495 11.3474 2.32589 11.3388C2.34682 11.3302 2.36926 11.3259 2.3919 11.326C2.41453 11.3262 2.4369 11.3309 2.45771 11.3398C2.47852 11.3487 2.49734 11.3616 2.51309 11.3779L4.57423 13.439C4.59053 13.4547 4.60354 13.4735 4.6125 13.4943C4.62146 13.5151 4.6262 13.5374 4.62642 13.5601C4.62665 13.5827 4.62237 13.6051 4.61383 13.6261C4.60529 13.6471 4.59266 13.6661 4.57668 13.6821C4.5607 13.6982 4.54168 13.7108 4.52075 13.7194C4.49981 13.728 4.47737 13.7324 4.45474 13.7322C4.43211 13.7321 4.40974 13.7274 4.38893 13.7185C4.36812 13.7096 4.34929 13.6966 4.33355 13.6804ZM3.64696 15.1892L2.21991 13.7622C2.20406 13.7463 2.19149 13.7275 2.18291 13.7068C2.17434 13.6861 2.16992 13.6639 2.16992 13.6415C2.16992 13.6191 2.17434 13.5969 2.18291 13.5762C2.19149 13.5555 2.20406 13.5367 2.21991 13.5208C2.23576 13.505 2.25457 13.4924 2.27528 13.4838C2.29599 13.4753 2.31818 13.4708 2.34059 13.4708C2.363 13.4708 2.3852 13.4753 2.4059 13.4838C2.42661 13.4924 2.44543 13.505 2.46127 13.5208L3.88832 14.9479C3.90417 14.9637 3.91674 14.9825 3.92532 15.0032C3.93389 15.0239 3.93831 15.0461 3.93831 15.0686C3.93831 15.091 3.93389 15.1132 3.92532 15.1339C3.91674 15.1546 3.90417 15.1734 3.88832 15.1892C3.87247 15.2051 3.85366 15.2177 3.83295 15.2262C3.81224 15.2348 3.79005 15.2392 3.76764 15.2392C3.74522 15.2392 3.72303 15.2348 3.70232 15.2262C3.68162 15.2177 3.6628 15.2051 3.64696 15.1892ZM3.60741 17.5033L2.27173 16.1676C2.25588 16.1519 2.2433 16.1331 2.23471 16.1125C2.22613 16.0918 2.22171 16.0697 2.22171 16.0473C2.22171 16.0249 2.22613 16.0028 2.23471 15.9821C2.2433 15.9615 2.25588 15.9427 2.27173 15.927C2.2875 15.9111 2.30626 15.8985 2.32691 15.8899C2.34756 15.8814 2.3697 15.8769 2.39207 15.8769C2.41443 15.8769 2.43658 15.8814 2.45723 15.8899C2.47788 15.8985 2.49663 15.9111 2.51241 15.927L3.84809 17.2626C3.86538 17.2781 3.87933 17.2969 3.8891 17.3179C3.89886 17.339 3.90423 17.3618 3.90488 17.385C3.90553 17.4081 3.90144 17.4312 3.89287 17.4527C3.8843 17.4743 3.87142 17.4939 3.85502 17.5103C3.83863 17.5267 3.81906 17.5395 3.79751 17.5481C3.77597 17.5567 3.7529 17.5608 3.72972 17.5601C3.70655 17.5595 3.68374 17.5541 3.66271 17.5443C3.64168 17.5346 3.62286 17.5206 3.60741 17.5033ZM2.84718 19.0429C2.83131 19.027 2.81871 19.0082 2.81012 18.9875C2.80153 18.9668 2.79711 18.9446 2.79711 18.9222C2.79711 18.8998 2.80153 18.8776 2.81012 18.8569C2.81871 18.8362 2.83131 18.8173 2.84718 18.8015L5.24991 16.3988C5.26566 16.3825 5.28448 16.3696 5.30529 16.3607C5.3261 16.3518 5.34847 16.3471 5.37111 16.3469C5.39374 16.3468 5.41618 16.3511 5.43711 16.3597C5.45805 16.3683 5.47706 16.381 5.49304 16.397C5.50902 16.413 5.52165 16.4321 5.53019 16.4531C5.53873 16.474 5.54302 16.4965 5.54279 16.5191C5.54256 16.5417 5.53783 16.5641 5.52886 16.5849C5.5199 16.6057 5.50689 16.6244 5.49059 16.6401L3.08855 19.0429C3.07271 19.0587 3.0539 19.0713 3.03319 19.0799C3.01249 19.0885 2.99029 19.0929 2.96786 19.0929C2.94544 19.0929 2.92324 19.0885 2.90253 19.0799C2.88183 19.0713 2.86302 19.0587 2.84718 19.0429Z" fill="white"/>
<path d="M2.32351 16.1162C2.30764 16.1003 2.29505 16.0815 2.28645 16.0608C2.27786 16.0401 2.27344 16.0179 2.27344 15.9955C2.27344 15.9731 2.27786 15.9509 2.28645 15.9302C2.29505 15.9095 2.30764 15.8906 2.32351 15.8748L4.71329 13.485C4.72914 13.4692 4.74795 13.4566 4.76866 13.448C4.78936 13.4395 4.81156 13.435 4.83397 13.435C4.85638 13.435 4.87858 13.4395 4.89928 13.448C4.91999 13.4566 4.9388 13.4692 4.95465 13.485C4.9705 13.5009 4.98307 13.5197 4.99165 13.5404C5.00023 13.5611 5.00464 13.5833 5.00464 13.6057C5.00464 13.6281 5.00023 13.6503 4.99165 13.671C4.98307 13.6917 4.9705 13.7105 4.95465 13.7264L2.56488 16.1162C2.53272 16.1479 2.48937 16.1657 2.4442 16.1657C2.39902 16.1657 2.35567 16.1479 2.32351 16.1162ZM2.63715 13.4489C2.62128 13.4331 2.60868 13.4143 2.60009 13.3935C2.5915 13.3728 2.58707 13.3506 2.58707 13.3282C2.58707 13.3058 2.5915 13.2836 2.60009 13.2629C2.60868 13.2422 2.62128 13.2234 2.63715 13.2075L5.16601 10.6787C5.18176 10.6624 5.20059 10.6495 5.2214 10.6406C5.24221 10.6317 5.26458 10.627 5.28721 10.6268C5.30984 10.6267 5.33228 10.631 5.35322 10.6396C5.37415 10.6482 5.39317 10.6609 5.40915 10.6769C5.42513 10.6929 5.43776 10.712 5.4463 10.7329C5.45484 10.7539 5.45912 10.7764 5.45889 10.799C5.45866 10.8216 5.45393 10.844 5.44497 10.8648C5.43601 10.8855 5.423 10.9043 5.4067 10.92L2.87783 13.4489C2.86206 13.4648 2.84331 13.4773 2.82265 13.4859C2.802 13.4945 2.77986 13.4989 2.75749 13.4989C2.73513 13.4989 2.71298 13.4945 2.69233 13.4859C2.67168 13.4773 2.65293 13.4648 2.63715 13.4489ZM2.95079 10.7305C2.93491 10.7147 2.92232 10.6958 2.91373 10.6751C2.90513 10.6544 2.90071 10.6322 2.90071 10.6098C2.90071 10.5874 2.90513 10.5652 2.91373 10.5445C2.92232 10.5238 2.93491 10.505 2.95079 10.4891L4.97715 8.46276C5.00916 8.43075 5.05257 8.41277 5.09783 8.41277C5.1431 8.41277 5.18651 8.43075 5.21851 8.46276C5.25052 8.49477 5.2685 8.53818 5.2685 8.58344C5.2685 8.62871 5.25052 8.67212 5.21851 8.70412L3.19215 10.7312C3.17627 10.747 3.15743 10.7595 3.13669 10.7681C3.11596 10.7766 3.09375 10.781 3.07133 10.7809C3.04891 10.7808 3.02672 10.7764 3.00604 10.7677C2.98535 10.7591 2.96658 10.7464 2.95079 10.7305ZM4.25783 8.84799C4.24196 8.83216 4.22937 8.81335 4.22077 8.79264C4.21218 8.77193 4.20776 8.74973 4.20776 8.72731C4.20776 8.70489 4.21218 8.68269 4.22077 8.66198C4.22937 8.64127 4.24196 8.62246 4.25783 8.60663L6.25761 6.60685C6.27345 6.591 6.29227 6.57843 6.31298 6.56986C6.33368 6.56128 6.35588 6.55686 6.37829 6.55686C6.4007 6.55686 6.42289 6.56128 6.4436 6.56986C6.46431 6.57843 6.48312 6.591 6.49897 6.60685C6.51482 6.6227 6.52739 6.64152 6.53597 6.66222C6.54454 6.68293 6.54896 6.70512 6.54896 6.72753C6.54896 6.74995 6.54454 6.77214 6.53597 6.79285C6.52739 6.81355 6.51482 6.83237 6.49897 6.84822L4.4992 8.84799C4.48336 8.86386 4.46455 8.87646 4.44384 8.88505C4.42314 8.89364 4.40094 8.89807 4.37852 8.89807C4.35609 8.89807 4.33389 8.89364 4.31319 8.88505C4.29248 8.87646 4.27367 8.86386 4.25783 8.84799ZM6.19283 8.27322C6.17696 8.25738 6.16437 8.23857 6.15577 8.21786C6.14718 8.19715 6.14276 8.17495 6.14276 8.15253C6.14276 8.13011 6.14718 8.10791 6.15577 8.0872C6.16437 8.0665 6.17696 8.04769 6.19283 8.03185L8.01942 6.20526C8.05143 6.17325 8.09484 6.15527 8.14011 6.15527C8.18537 6.15527 8.22878 6.17325 8.26079 6.20526C8.29279 6.23727 8.31078 6.28068 8.31078 6.32594C8.31078 6.37121 8.29279 6.41462 8.26079 6.44663L6.4342 8.27322C6.40204 8.30494 6.35869 8.32273 6.31352 8.32273C6.26834 8.32273 6.22499 8.30494 6.19283 8.27322ZM8.70192 7.92753L9.96124 6.66822C9.97699 6.65196 9.99582 6.639 10.0166 6.6301C10.0374 6.6212 10.0598 6.61653 10.0824 6.61636C10.1051 6.6162 10.1275 6.62054 10.1484 6.62914C10.1694 6.63774 10.1884 6.65043 10.2044 6.66645C10.2204 6.68248 10.233 6.70153 10.2415 6.72249C10.2501 6.74345 10.2543 6.7659 10.2541 6.78853C10.2539 6.81116 10.2492 6.83352 10.2402 6.85431C10.2312 6.87509 10.2182 6.89388 10.2019 6.90958L8.94261 8.1689C8.78442 8.32708 8.54238 8.08708 8.70192 7.92753Z" fill="white"/>
</svg>
