<svg width="14" height="16" viewBox="0 0 14 16" fill="none" xmlns="http://www.w3.org/2000/svg">
<path d="M6.7372 7.70728C7.79601 7.70728 8.71276 7.3275 9.46204 6.57822C10.2111 5.82909 10.5909 4.91247 10.5909 3.85353C10.5909 2.79491 10.2112 1.87819 9.46191 1.12878C8.71263 0.37975 7.79588 0 6.7372 0C5.67823 0 4.76157 0.37975 4.01245 1.12891C3.26332 1.87806 2.88341 2.79481 2.88341 3.85353C2.88341 4.91247 3.26329 5.82922 4.01248 6.57837C4.76185 7.32741 5.6786 7.70728 6.73716 7.70728H6.7372ZM4.67554 1.79188C5.25035 1.21703 5.9247 0.937625 6.7372 0.937625C7.54957 0.937625 8.22401 1.21703 8.79895 1.79188C9.37379 2.36681 9.65332 3.04125 9.65332 3.8535C9.65332 4.666 9.37379 5.34034 8.79895 5.91528C8.22401 6.49025 7.54957 6.76966 6.7372 6.76966C5.92491 6.76966 5.25063 6.49013 4.67554 5.91528C4.10057 5.34047 3.82104 4.66603 3.82104 3.85353C3.82104 3.04125 4.10057 2.36681 4.67554 1.79188ZM13.4802 12.3032C13.4586 11.9915 13.4149 11.6513 13.3506 11.2922C13.2856 10.9304 13.202 10.5884 13.1019 10.2758C12.9984 9.95263 12.8579 9.63356 12.6839 9.32775C12.5036 9.01038 12.2918 8.734 12.0539 8.50659C11.8053 8.26869 11.5009 8.07741 11.1488 7.93784C10.798 7.79909 10.4092 7.72878 9.99329 7.72878C9.82995 7.72878 9.67201 7.79578 9.36695 7.99441C9.1501 8.13561 8.93261 8.27582 8.71448 8.41503C8.50488 8.54859 8.22095 8.67372 7.87023 8.787C7.52807 8.89772 7.18066 8.95387 6.83763 8.95387C6.49488 8.95387 6.14745 8.89772 5.80504 8.787C5.45473 8.67381 5.17066 8.54872 4.96141 8.41516C4.7186 8.26 4.49891 8.11841 4.30835 7.99425C4.00354 7.79566 3.84557 7.72862 3.68226 7.72862C3.26623 7.72862 2.87757 7.79906 2.52685 7.938C2.17504 8.07728 1.87048 8.26856 1.62157 8.50672C1.38379 8.73425 1.17188 9.01047 0.991696 9.32775C0.818009 9.63353 0.677384 9.9525 0.573853 10.2759C0.473853 10.5885 0.390259 10.9304 0.325321 11.2922C0.260853 11.6509 0.21729 11.9911 0.195665 12.3036C0.174415 12.6091 0.163696 12.9271 0.163696 13.2484C0.163696 14.0836 0.429196 14.7598 0.952759 15.2584C1.46985 15.7505 2.15395 16 2.98607 16H10.6902C11.5221 16 12.2062 15.7505 12.7234 15.2584C13.2471 14.7601 13.5126 14.0838 13.5126 13.2483C13.5124 12.9259 13.5016 12.6079 13.4802 12.3032ZM12.0769 14.5791C11.7352 14.9043 11.2816 15.0624 10.69 15.0624H2.9861C2.39445 15.0624 1.94082 14.9043 1.59926 14.5793C1.2642 14.2603 1.10135 13.8248 1.10135 13.2484C1.10135 12.9486 1.11123 12.6526 1.13104 12.3684C1.15029 12.0896 1.18973 11.7833 1.24823 11.4579C1.30595 11.1365 1.37941 10.8348 1.46682 10.5618C1.5507 10.2999 1.66507 10.0407 1.80691 9.79091C1.94229 9.55284 2.09804 9.34862 2.26991 9.18409C2.4307 9.03016 2.63335 8.90419 2.8721 8.80972C3.09291 8.72228 3.3411 8.67444 3.61051 8.66722C3.64332 8.68472 3.70182 8.71803 3.79654 8.77978C3.98929 8.90541 4.21145 9.04872 4.45707 9.20556C4.73395 9.38209 5.0906 9.5415 5.51676 9.67906C5.95241 9.81994 6.39676 9.89147 6.83779 9.89147C7.27885 9.89147 7.72329 9.81994 8.15873 9.67919C8.58523 9.54138 8.94179 9.38209 9.21904 9.20531C9.47038 9.04469 9.68632 8.90553 9.87904 8.77978C9.97379 8.71813 10.0323 8.68469 10.0651 8.66725C10.3346 8.67444 10.5828 8.72228 10.8037 8.80969C11.0424 8.90419 11.245 9.03028 11.4058 9.18406C11.5777 9.3485 11.7334 9.55275 11.8688 9.79103C12.0108 10.0407 12.1253 10.3001 12.209 10.5617C12.2965 10.8351 12.3701 11.1366 12.4278 11.4578C12.4861 11.7838 12.5257 12.0902 12.5449 12.3685V12.3688C12.5649 12.6518 12.5749 12.9478 12.575 13.2484C12.5749 13.825 12.412 14.2603 12.0769 14.5791H12.0769Z" fill="white"/>
</svg>
