<svg width="27" height="13" viewBox="0 0 27 13" fill="none" xmlns="http://www.w3.org/2000/svg">
<path d="M19.6218 7L0.37785 6.97991C0.277638 6.97991 0.181531 6.92829 0.11067 6.83641C0.0398091 6.74452 0 6.6199 0 6.48996C0 6.36001 0.0398091 6.23539 0.11067 6.14351C0.181531 6.05162 0.277638 6 0.37785 6L19.6222 6.02009C19.7224 6.02009 19.8185 6.07171 19.8893 6.16359C19.9602 6.25548 20 6.3801 20 6.51004C20 6.63999 19.9602 6.76461 19.8893 6.8565C19.8185 6.94838 19.722 7 19.6218 7Z" fill="#0F110F"/>
<path d="M26.9992 6.25078C23.2711 7.62891 18.6445 9.98616 15.7773 12.4852L18.0388 6.24291L15.7859 0C18.6504 2.50228 23.273 4.86478 26.9992 6.25078Z" fill="#0F110F"/>
</svg>
